<svg width="12" height="10" viewBox="0 0 12 10" fill="none" xmlns="http://www.w3.org/2000/svg">
<path fill-rule="evenodd" clip-rule="evenodd" d="M11.8333 4.99981C11.8333 2.86784 8.182 0.791843 7.45 0.397176C7.12533 0.221843 6.72133 0.343176 6.54667 0.667843C6.37267 0.991176 6.49267 1.39584 6.81733 1.57051C8.038 2.22984 9.65333 3.38784 10.2567 4.33381H1.16667C0.798 4.33381 0.5 4.63181 0.5 5.00048C0.5 5.36848 0.798 5.66714 1.16667 5.66714H10.2553C9.65133 6.61314 8.03733 7.77114 6.81733 8.42981C6.49267 8.60514 6.37267 9.00914 6.54667 9.33314C6.66733 9.55648 6.89733 9.68314 7.134 9.68314C7.24067 9.68314 7.34933 9.65781 7.45 9.60314C8.18133 9.20848 11.83 7.13381 11.8333 5.00181V4.99981Z" fill="#2E3A59"/>
</svg>
