<svg width="25" height="25" viewBox="0 0 25 25" fill="none" xmlns="http://www.w3.org/2000/svg">
<path fill-rule="evenodd" clip-rule="evenodd" d="M22.1815 10.2295C21.7945 8.58349 20.0765 8.49849 18.6955 8.42949C17.8265 8.38549 16.9275 8.34149 16.5515 7.95249C16.1685 7.55649 15.8695 6.79749 15.5785 6.06349C15.0115 4.62749 14.3685 3.00049 12.7495 3.00049C11.1315 3.00049 10.4895 4.62749 9.92153 6.06349C9.63153 6.79749 9.33153 7.55649 8.94953 7.95249C8.57253 8.34149 7.67353 8.38549 6.80453 8.42949C5.42353 8.49849 3.70553 8.58349 3.31853 10.2295C2.95153 11.7915 4.09853 12.7365 5.11053 13.5705C5.80253 14.1405 6.45653 14.6805 6.60153 15.3405C6.74253 15.9815 6.53053 16.8095 6.32553 17.6115C5.97353 18.9905 5.57353 20.5525 6.90853 21.5595C7.32553 21.8745 7.74853 21.9995 8.16653 21.9995C9.07153 21.9995 9.95353 21.4155 10.7085 20.9155C11.4075 20.4535 12.1305 19.9745 12.7495 19.9745C13.3685 19.9745 14.0925 20.4535 14.7905 20.9155C15.8955 21.6465 17.2695 22.5545 18.5925 21.5595C19.9275 20.5525 19.5275 18.9895 19.1745 17.6095C18.9695 16.8085 18.7585 15.9805 18.8985 15.3405C19.0435 14.6805 19.6975 14.1415 20.3895 13.5705C21.4015 12.7365 22.5485 11.7915 22.1815 10.2295Z" fill="#1AA136"/>
</svg>
