<svg width="17" height="17" viewBox="0 0 17 17" fill="none" xmlns="http://www.w3.org/2000/svg">
<g opacity="0.4">
<path fill-rule="evenodd" clip-rule="evenodd" d="M14.9544 6.98633C14.6964 5.88899 13.551 5.83233 12.6304 5.78633C12.051 5.75699 11.4517 5.72766 11.201 5.46833C10.9457 5.20433 10.7464 4.69833 10.5524 4.20899C10.1744 3.25166 9.74571 2.16699 8.66637 2.16699C7.58771 2.16699 7.15973 3.25166 6.78106 4.20899C6.58773 4.69833 6.38773 5.20433 6.13306 5.46833C5.88173 5.72766 5.28239 5.75699 4.70306 5.78633C3.78239 5.83233 2.63706 5.88899 2.37906 6.98633C2.13439 8.02767 2.89906 8.65767 3.57373 9.21367C4.03506 9.59367 4.47106 9.95367 4.56773 10.3937C4.66173 10.821 4.52039 11.373 4.38373 11.9077C4.14906 12.827 3.88239 13.8683 4.77239 14.5397C5.05039 14.7497 5.33239 14.833 5.61106 14.833C6.21439 14.833 6.80239 14.4437 7.30571 14.1103C7.77171 13.8023 8.25371 13.483 8.66637 13.483C9.07904 13.483 9.56171 13.8023 10.027 14.1103C10.7637 14.5977 11.6797 15.203 12.5617 14.5397C13.4517 13.8683 13.185 12.8263 12.9497 11.9063C12.813 11.3723 12.6724 10.8203 12.7657 10.3937C12.8624 9.95367 13.2984 9.59433 13.7597 9.21367C14.4344 8.65767 15.199 8.02767 14.9544 6.98633Z" fill="#298E3E"/>
</g>
</svg>
