<svg width="216" height="83" viewBox="0 0 216 83" fill="none" xmlns="http://www.w3.org/2000/svg">
<g filter="url(#filter0_d_6_182)">
<rect x="19.5" y="14" width="177" height="45" rx="22.5" fill="#298E3E" shape-rendering="crispEdges"/>
<path d="M34.4458 43.187C33.7018 43.187 33.2058 43.0527 32.9578 42.784C32.7098 42.5153 32.7098 42.2467 32.9578 41.978C33.2058 41.7093 33.7018 41.575 34.4458 41.575C34.0738 41.575 33.7741 41.42 33.5468 41.11C33.3195 40.7793 33.1645 40.3763 33.0818 39.901C33.0198 39.4257 33.0198 38.9503 33.0818 38.475C33.1645 37.979 33.3195 37.576 33.5468 37.266C33.7741 36.9353 34.0738 36.77 34.4458 36.77C33.9291 36.77 33.5365 36.6047 33.2678 36.274C32.9991 35.9227 32.8648 35.53 32.8648 35.096C32.8648 34.662 32.9991 34.2797 33.2678 33.949C33.5365 33.5977 33.9291 33.422 34.4458 33.422C33.7431 33.422 33.2678 33.2877 33.0198 33.019C32.7925 32.7503 32.7925 32.4817 33.0198 32.213C33.2678 31.9443 33.7431 31.81 34.4458 31.81C33.7225 31.81 33.2368 31.7067 32.9888 31.5C32.7615 31.2933 32.7615 31.097 32.9888 30.911C33.2368 30.7043 33.7225 30.601 34.4458 30.601C33.7225 30.601 33.2368 30.477 32.9888 30.229C32.7615 29.981 32.7615 29.733 32.9888 29.485C33.2368 29.237 33.7225 29.113 34.4458 29.113C33.7845 29.113 33.3401 28.958 33.1128 28.648C32.9061 28.338 32.9061 28.028 33.1128 27.718C33.3401 27.408 33.7845 27.253 34.4458 27.253C34.1151 26.7777 34.0221 26.3747 34.1668 26.044C34.3115 25.7133 34.5595 25.548 34.9108 25.548C35.2828 25.5273 35.6341 25.7547 35.9648 26.23C35.9648 25.424 36.1198 24.897 36.4298 24.649C36.7398 24.3803 37.0498 24.3803 37.3598 24.649C37.6698 24.897 37.8248 25.424 37.8248 26.23C37.8248 25.6307 37.9695 25.1863 38.2588 24.897C38.5481 24.6077 38.8788 24.463 39.2508 24.463C39.6228 24.463 39.9535 24.6077 40.2428 24.897C40.5321 25.1863 40.6768 25.6307 40.6768 26.23C40.6768 25.734 40.8111 25.3723 41.0798 25.145C41.3691 24.897 41.6895 24.773 42.0408 24.773C42.3921 24.773 42.7021 24.897 42.9708 25.145C43.2601 25.3723 43.4048 25.734 43.4048 26.23C43.4668 25.7547 43.7148 25.424 44.1488 25.238C44.6035 25.052 45.0995 25.0003 45.6368 25.083C46.1741 25.145 46.6288 25.3207 47.0008 25.61C47.3728 25.8993 47.5278 26.2817 47.4658 26.757C47.7758 26.013 48.0961 25.5687 48.4268 25.424C48.7575 25.2793 48.9848 25.3827 49.1088 25.734C49.2328 26.0647 49.1501 26.602 48.8608 27.346C49.1295 27.0773 49.4601 27.0257 49.8528 27.191C50.2661 27.3357 50.6485 27.594 50.9998 27.966C51.3718 28.338 51.6198 28.7307 51.7438 29.144C51.8885 29.5573 51.8265 29.8983 51.5578 30.167C52.0951 30.043 52.5188 30.074 52.8288 30.26C53.1595 30.4253 53.3558 30.663 53.4178 30.973C53.5005 31.2623 53.4281 31.5517 53.2008 31.841C52.9941 32.1303 52.6221 32.337 52.0848 32.461C52.4568 32.5643 52.6841 32.8433 52.7668 33.298C52.8495 33.732 52.8185 34.2177 52.6738 34.755C52.5291 35.2717 52.3018 35.7057 51.9918 36.057C51.7025 36.3877 51.3718 36.5013 50.9998 36.398C51.3925 36.8527 51.5165 37.297 51.3718 37.731C51.2478 38.165 51.0101 38.4853 50.6588 38.692C50.7828 39.002 50.5348 39.281 49.9148 39.529C50.3075 39.5497 50.6588 39.7047 50.9688 39.994C51.2788 40.2833 51.5061 40.6347 51.6508 41.048C51.7955 41.4407 51.8161 41.8333 51.7128 42.226C51.6095 42.6187 51.3511 42.939 50.9378 43.187C51.5578 42.8357 52.0331 42.691 52.3638 42.753C52.7151 42.7943 52.8598 42.9597 52.7978 43.249C52.7358 43.5177 52.4361 43.8277 51.8988 44.179C52.3741 43.931 52.7668 43.9103 53.0768 44.117C53.3868 44.303 53.5315 44.5923 53.5108 44.985C53.5108 45.357 53.2628 45.7187 52.7668 46.07C52.7668 46.4833 52.6118 46.814 52.3018 47.062C52.0125 47.31 51.6508 47.4753 51.2168 47.558C50.7828 47.6407 50.3488 47.6407 49.9148 47.558C49.4808 47.4753 49.1088 47.31 48.7988 47.062C48.5095 46.814 48.3648 46.4833 48.3648 46.07C48.1788 46.4833 47.8998 46.7313 47.5278 46.814C47.1558 46.876 46.7838 46.8243 46.4118 46.659C46.0398 46.4937 45.7608 46.2457 45.5748 45.915C45.3888 45.5637 45.3888 45.1917 45.5748 44.799C45.1821 44.9643 44.8205 44.985 44.4898 44.861C44.1798 44.7163 43.9421 44.489 43.7768 44.179C43.6115 43.869 43.5495 43.5487 43.5908 43.218C43.6528 42.8667 43.8491 42.5773 44.1798 42.35C43.7665 42.536 43.3428 42.4843 42.9088 42.195C42.4955 41.9057 42.1958 41.5337 42.0098 41.079C41.8651 41.1617 41.6998 41.203 41.5138 41.203C41.6171 41.575 41.5655 41.947 41.3588 42.319C41.1728 42.6703 40.8318 42.846 40.3358 42.846C40.7491 42.846 41.0591 42.9597 41.2658 43.187C41.4725 43.4143 41.5758 43.6727 41.5758 43.962C41.5758 44.2513 41.4725 44.5097 41.2658 44.737C41.0591 44.9437 40.7491 45.047 40.3358 45.047C40.6458 45.4603 40.7491 45.822 40.6458 46.132C40.5425 46.4213 40.3255 46.5867 39.9948 46.628C39.6848 46.6487 39.3748 46.4627 39.0648 46.07C39.0648 46.566 38.8995 46.9483 38.5688 47.217C38.2588 47.4857 37.8661 47.62 37.3908 47.62C36.9361 47.6407 36.4815 47.496 36.0268 47.186C35.5721 46.8967 35.1898 46.4317 34.8798 45.791C34.5698 45.1297 34.4251 44.2617 34.4458 43.187ZM40.3358 33.329C40.7491 33.329 41.0385 33.484 41.2038 33.794C41.3898 34.0833 41.4725 34.3623 41.4518 34.631C41.7825 34.383 42.2268 34.259 42.7848 34.259C43.3428 34.2383 43.7768 34.3417 44.0868 34.569C44.0661 34.2177 44.1798 33.8353 44.4278 33.422C44.6758 32.988 44.9548 32.709 45.2648 32.585C44.9961 32.4817 44.9238 32.3267 45.0478 32.12C44.6551 32.2233 44.3348 32.1303 44.0868 31.841C43.8595 31.5517 43.8285 31.221 43.9938 30.849C43.7458 30.973 43.4358 31.035 43.0638 31.035C42.7125 31.035 42.3818 30.9833 42.0718 30.88C41.7618 30.756 41.5655 30.5803 41.4828 30.353C41.5241 30.7663 41.4001 31.0143 41.1108 31.097C41.1315 31.3037 41.0798 31.5 40.9558 31.686C40.8318 31.872 40.6251 31.965 40.3358 31.965C40.7285 31.965 40.9868 32.0787 41.1108 32.306C41.2555 32.5333 41.2555 32.7607 41.1108 32.988C40.9868 33.2153 40.7285 33.329 40.3358 33.329ZM56.5472 45.915C56.1338 45.915 55.7928 45.76 55.5242 45.45C55.2762 45.1193 55.1108 44.7163 55.0282 44.241C54.9455 43.745 54.9455 43.2593 55.0282 42.784C55.1108 42.3087 55.2762 41.916 55.5242 41.606C55.7928 41.2753 56.1338 41.11 56.5472 41.11C56.1545 41.11 55.8342 40.955 55.5862 40.645C55.3588 40.335 55.2038 39.9527 55.1212 39.498C55.0592 39.0433 55.0592 38.5887 55.1212 38.134C55.2038 37.6793 55.3588 37.297 55.5862 36.987C55.8342 36.677 56.1545 36.522 56.5472 36.522C55.9272 36.522 55.4622 36.4187 55.1522 36.212C54.8628 35.9847 54.7182 35.7367 54.7182 35.468C54.7182 35.1993 54.8628 34.9617 55.1522 34.755C55.4622 34.5277 55.9272 34.414 56.5472 34.414C56.1545 34.414 55.8445 34.259 55.6172 33.949C55.3898 33.639 55.2348 33.2567 55.1522 32.802C55.0902 32.3473 55.0902 31.8927 55.1522 31.438C55.2348 30.9833 55.3898 30.6113 55.6172 30.322C55.8445 30.012 56.1545 29.857 56.5472 29.857C55.7412 29.857 55.1935 29.7227 54.9042 29.454C54.6355 29.1853 54.6355 28.9167 54.9042 28.648C55.1935 28.3793 55.7412 28.245 56.5472 28.245C56.2578 27.935 56.1338 27.6043 56.1752 27.253C56.2372 26.9017 56.4025 26.602 56.6712 26.354C56.9398 26.0853 57.2498 25.9303 57.6012 25.889C57.9525 25.827 58.2728 25.9407 58.5622 26.23C58.5622 25.672 58.6862 25.2587 58.9342 24.99C59.2028 24.7007 59.5128 24.556 59.8642 24.556C60.2155 24.556 60.5152 24.7007 60.7632 24.99C61.0318 25.2587 61.1662 25.672 61.1662 26.23C61.5588 25.9407 61.9308 25.8373 62.2822 25.92C62.6335 25.982 62.9125 26.1577 63.1192 26.447C63.3258 26.7157 63.3982 27.036 63.3362 27.408C63.2948 27.7593 63.0778 28.0797 62.6852 28.369C63.1812 28.369 63.5532 28.524 63.8012 28.834C64.0698 29.1233 64.2042 29.4643 64.2042 29.857C64.2042 30.2497 64.0698 30.5907 63.8012 30.88C63.5532 31.1693 63.1812 31.314 62.6852 31.314C63.4705 31.314 63.9872 31.4173 64.2352 31.624C64.5038 31.8307 64.5038 32.0373 64.2352 32.244C63.9872 32.4507 63.4705 32.554 62.6852 32.554C63.1605 32.554 63.5118 32.678 63.7392 32.926C63.9665 33.1533 64.0802 33.422 64.0802 33.732C64.0802 34.042 63.9665 34.321 63.7392 34.569C63.5118 34.7963 63.1605 34.91 62.6852 34.91C63.2845 34.91 63.7288 35.096 64.0182 35.468C64.3282 35.8193 64.4832 36.2327 64.4832 36.708C64.4832 37.1833 64.3282 37.607 64.0182 37.979C63.7288 38.3303 63.2845 38.506 62.6852 38.506C63.4085 38.506 63.8838 38.6403 64.1112 38.909C64.3592 39.1777 64.3592 39.4463 64.1112 39.715C63.8838 39.9837 63.4085 40.118 62.6852 40.118C63.0778 40.118 63.3878 40.273 63.6152 40.583C63.8632 40.8723 64.0182 41.2443 64.0802 41.699C64.1628 42.1537 64.1628 42.6083 64.0802 43.063C64.0182 43.5177 63.8632 43.9 63.6152 44.21C63.3878 44.52 63.0778 44.675 62.6852 44.675C62.9125 45.0057 62.9745 45.326 62.8712 45.636C62.7885 45.9253 62.6128 46.163 62.3442 46.349C62.0755 46.535 61.7862 46.6177 61.4762 46.597C61.1662 46.5763 60.8975 46.4007 60.6702 46.07C60.6702 46.4833 60.5255 46.8037 60.2362 47.031C59.9675 47.279 59.6162 47.4443 59.1822 47.527C58.7688 47.6097 58.3555 47.5993 57.9422 47.496C57.5288 47.4133 57.1878 47.2377 56.9192 46.969C56.6505 46.7003 56.5265 46.349 56.5472 45.915ZM74.3545 46.256C74.2099 46.752 73.9412 47.0827 73.5485 47.248C73.1559 47.4133 72.7425 47.434 72.3085 47.31C71.8952 47.2067 71.5542 46.9897 71.2855 46.659C71.0375 46.3077 70.9859 45.8737 71.1305 45.357C70.7585 45.977 70.3865 46.318 70.0145 46.38C69.6425 46.4213 69.3945 46.2663 69.2705 45.915C69.1465 45.543 69.2705 45.0573 69.6425 44.458C69.2705 44.7267 68.8779 44.7783 68.4645 44.613C68.0719 44.427 67.7412 44.1377 67.4725 43.745C67.2039 43.3317 67.0592 42.908 67.0385 42.474C67.0179 42.04 67.1935 41.6887 67.5655 41.42C66.9042 41.606 66.4289 41.6267 66.1395 41.482C65.8709 41.3373 65.8192 41.141 65.9845 40.893C66.1705 40.6243 66.6045 40.4073 67.2865 40.242C66.7285 40.2627 66.3049 40.1387 66.0155 39.87C65.7262 39.6013 65.5609 39.281 65.5195 38.909C65.4989 38.5163 65.6125 38.165 65.8605 37.855C66.1292 37.545 66.5425 37.3693 67.1005 37.328C66.6252 37.328 66.2635 37.1317 66.0155 36.739C65.7882 36.3257 65.6745 35.871 65.6745 35.375C65.6745 34.8583 65.7985 34.4037 66.0465 34.011C66.2945 33.6183 66.6562 33.422 67.1315 33.422C66.8009 33.298 66.5839 33.05 66.4805 32.678C66.3979 32.306 66.3979 31.8927 66.4805 31.438C66.5632 30.9627 66.7182 30.5183 66.9455 30.105C67.1729 29.671 67.4312 29.3403 67.7205 29.113C68.0305 28.865 68.3509 28.803 68.6815 28.927C68.3922 28.5343 68.3095 28.1417 68.4335 27.749C68.5575 27.3563 68.7952 27.0257 69.1465 26.757C69.4979 26.4883 69.8802 26.354 70.2935 26.354C70.7069 26.3333 71.0582 26.5193 71.3475 26.912C71.2649 26.478 71.3372 26.106 71.5645 25.796C71.8125 25.4653 72.1432 25.2173 72.5565 25.052C72.9699 24.866 73.4039 24.773 73.8585 24.773C74.3132 24.7523 74.7059 24.835 75.0365 25.021C75.3879 25.207 75.6152 25.517 75.7185 25.951C75.7392 25.4343 75.9252 25.052 76.2765 24.804C76.6279 24.556 77.0205 24.4423 77.4545 24.463C77.9092 24.4837 78.3019 24.6387 78.6325 24.928C78.9632 25.1967 79.1182 25.5893 79.0975 26.106C79.2629 25.6513 79.5522 25.3517 79.9655 25.207C80.3789 25.0417 80.8232 25.0003 81.2985 25.083C81.7945 25.1657 82.2389 25.3413 82.6315 25.61C83.0449 25.858 83.3445 26.1783 83.5305 26.571C83.7372 26.9637 83.7579 27.3873 83.5925 27.842C83.9232 27.532 84.2539 27.3873 84.5845 27.408C84.9152 27.4287 85.1839 27.5527 85.3905 27.78C85.6179 28.0073 85.7212 28.2863 85.7005 28.617C85.7005 28.9477 85.5249 29.268 85.1735 29.578C85.6282 29.454 86.0105 29.516 86.3205 29.764C86.6512 30.012 86.8785 30.3427 87.0025 30.756C87.1265 31.1487 87.1162 31.531 86.9715 31.903C86.8475 32.275 86.5582 32.5333 86.1035 32.678C86.1035 33.36 86.0105 33.8147 85.8245 34.042C85.6385 34.2693 85.4525 34.2693 85.2665 34.042C85.0805 33.8147 84.9875 33.36 84.9875 32.678C84.9875 33.05 84.8325 33.3497 84.5225 33.577C84.2332 33.8043 83.8612 33.9593 83.4065 34.042C82.9725 34.104 82.5282 34.104 82.0735 34.042C81.6395 33.9593 81.2675 33.8043 80.9575 33.577C80.6682 33.3497 80.5235 33.05 80.5235 32.678C80.1102 33.112 79.7382 33.3083 79.4075 33.267C79.0769 33.205 78.8805 33.0087 78.8185 32.678C78.7772 32.3473 78.9632 31.9753 79.3765 31.562C78.9012 32.0993 78.4569 32.3577 78.0435 32.337C77.6509 32.2957 77.4235 32.089 77.3615 31.717C77.1755 31.9237 76.9999 31.9443 76.8345 31.779C76.6485 32.1717 76.3592 32.523 75.9665 32.833C75.5945 33.1223 75.1915 33.298 74.7575 33.36C75.1089 33.6907 75.1502 34.0627 74.8815 34.476C74.6335 34.8893 74.1065 35.0753 73.3005 35.034C74.0032 35.0547 74.4682 35.1683 74.6955 35.375C74.9229 35.5817 74.9229 35.7883 74.6955 35.995C74.4682 36.2017 74.0032 36.305 73.3005 36.305C73.9619 36.2843 74.4372 36.398 74.7265 36.646C75.0159 36.8733 75.1089 37.1317 75.0055 37.421C74.9022 37.7103 74.6025 37.9273 74.1065 38.072C74.6025 38.134 75.0055 38.4233 75.3155 38.94C75.6462 39.4567 75.7909 39.963 75.7495 40.459C75.8735 40.4383 75.9769 40.49 76.0595 40.614C76.2869 40.2007 76.6279 39.8907 77.0825 39.684C77.5579 39.4567 78.0229 39.3843 78.4775 39.467C78.9529 39.5497 79.3249 39.839 79.5935 40.335C79.4902 39.901 79.5522 39.5393 79.7795 39.25C80.0275 38.9607 80.3375 38.7747 80.7095 38.692C81.1022 38.5887 81.4742 38.6093 81.8255 38.754C82.1769 38.8987 82.4042 39.188 82.5075 39.622C82.5075 39.0227 82.6625 38.568 82.9725 38.258C83.2825 37.948 83.6442 37.793 84.0575 37.793C84.4709 37.793 84.8325 37.948 85.1425 38.258C85.4525 38.568 85.6075 39.0227 85.6075 39.622C86.1862 39.56 86.5892 39.6737 86.8165 39.963C87.0439 40.2523 87.0749 40.5623 86.9095 40.893C86.7442 41.203 86.3619 41.3787 85.7625 41.42C86.1759 41.6887 86.3929 42.0193 86.4135 42.412C86.4549 42.784 86.3619 43.1457 86.1345 43.497C85.9072 43.8277 85.6075 44.0653 85.2355 44.21C84.8842 44.334 84.5122 44.2617 84.1195 43.993C84.3262 44.4063 84.3055 44.8197 84.0575 45.233C83.8095 45.6257 83.4479 45.946 82.9725 46.194C82.4972 46.442 82.0219 46.5557 81.5465 46.535C81.0712 46.5143 80.7302 46.2973 80.5235 45.884C80.6475 46.504 80.6165 46.938 80.4305 47.186C80.2652 47.434 80.0482 47.4753 79.7795 47.31C79.5109 47.1653 79.3145 46.7933 79.1905 46.194C79.2319 46.9173 79.0149 47.4133 78.5395 47.682C78.0642 47.9507 77.4442 47.9713 76.6795 47.744C75.9355 47.5167 75.1605 47.0207 74.3545 46.256ZM90.1541 41.575C89.5341 41.575 89.0691 41.451 88.7591 41.203C88.4698 40.9343 88.3251 40.6347 88.3251 40.304C88.3251 39.9527 88.4698 39.653 88.7591 39.405C89.0691 39.1363 89.5341 39.002 90.1541 39.002C89.6375 39.002 89.2448 38.7953 88.9761 38.382C88.7281 37.948 88.6041 37.452 88.6041 36.894C88.6041 36.336 88.7281 35.8503 88.9761 35.437C89.2448 35.003 89.6375 34.786 90.1541 34.786C89.6788 34.786 89.2965 34.6413 89.0071 34.352C88.7178 34.0627 88.5215 33.701 88.4181 33.267C88.3148 32.833 88.3148 32.4093 88.4181 31.996C88.5215 31.562 88.7178 31.2003 89.0071 30.911C89.2965 30.6217 89.6788 30.477 90.1541 30.477C89.5755 30.477 89.1311 30.353 88.8211 30.105C88.5318 29.8363 88.3871 29.547 88.3871 29.237C88.3871 28.9063 88.5318 28.617 88.8211 28.369C89.1311 28.121 89.5755 27.997 90.1541 27.997C89.8648 27.7283 89.7305 27.439 89.7511 27.129C89.7925 26.819 89.9165 26.5503 90.1231 26.323C90.3505 26.0957 90.6088 25.9613 90.8981 25.92C91.2081 25.858 91.5078 25.9613 91.7972 26.23C91.8385 25.6307 92.0761 25.1967 92.5102 24.928C92.9442 24.6387 93.4298 24.5147 93.9671 24.556C94.5045 24.5973 94.9695 24.7833 95.3622 25.114C95.7548 25.4447 95.9305 25.9097 95.8892 26.509C96.3438 26.509 96.6848 26.664 96.9121 26.974C97.1395 27.284 97.2532 27.6457 97.2532 28.059C97.2532 28.4517 97.1395 28.803 96.9121 29.113C96.6848 29.423 96.3438 29.578 95.8892 29.578C96.5092 29.578 96.9328 29.6813 97.1602 29.888C97.3875 30.074 97.4185 30.26 97.2532 30.446C97.6665 30.2807 98.0385 30.291 98.3692 30.477C98.1832 30.2083 98.1315 29.8673 98.2142 29.454C98.3175 29.0407 98.4932 28.648 98.7412 28.276C98.9892 27.8833 99.2785 27.594 99.6092 27.408C99.9398 27.222 100.27 27.2117 100.601 27.377C100.415 27.0257 100.384 26.7053 100.508 26.416C100.653 26.1267 100.87 25.9097 101.159 25.765C101.448 25.6203 101.748 25.579 102.058 25.641C102.368 25.6823 102.606 25.8787 102.771 26.23C102.771 25.7133 102.967 25.3103 103.36 25.021C103.753 24.7317 104.207 24.5767 104.724 24.556C105.261 24.5147 105.757 24.5973 106.212 24.804C106.667 24.99 106.966 25.3103 107.111 25.765C107.008 24.835 107.09 24.3907 107.359 24.432C107.628 24.4527 107.865 25.0003 108.072 26.075C108.485 26.323 108.733 26.602 108.816 26.912C108.899 27.222 108.868 27.501 108.723 27.749C108.578 27.997 108.341 28.1623 108.01 28.245C107.7 28.307 107.338 28.214 106.925 27.966C107.338 28.214 107.566 28.5343 107.607 28.927C107.648 29.3197 107.555 29.702 107.328 30.074C107.121 30.4253 106.832 30.6837 106.46 30.849C106.088 31.0143 105.706 30.973 105.313 30.725C105.768 30.9937 106.026 31.3347 106.088 31.748C106.171 32.1613 106.098 32.554 105.871 32.926C105.664 33.298 105.354 33.5563 104.941 33.701C104.548 33.825 104.125 33.7423 103.67 33.453C104.166 33.7423 104.445 34.104 104.507 34.538C104.569 34.9513 104.476 35.3027 104.228 35.592C104.497 35.778 104.59 36.0777 104.507 36.491C104.424 36.8837 104.083 37.2557 103.484 37.607C103.897 37.359 104.3 37.297 104.693 37.421C105.106 37.545 105.468 37.7827 105.778 38.134C106.109 38.4853 106.346 38.8883 106.491 39.343C106.656 39.7977 106.698 40.2317 106.615 40.645C106.532 41.0583 106.284 41.389 105.871 41.637C106.553 41.2237 107.059 41.048 107.39 41.11C107.721 41.1513 107.824 41.327 107.7 41.637C107.576 41.947 107.183 42.2983 106.522 42.691C106.935 42.443 107.328 42.3913 107.7 42.536C108.093 42.6807 108.392 42.939 108.599 43.311C108.826 43.683 108.909 44.0757 108.847 44.489C108.806 44.8817 108.578 45.202 108.165 45.45C109.219 45.388 109.746 45.4603 109.746 45.667C109.767 45.8737 109.25 46.008 108.196 46.07C108.196 46.5247 108.041 46.8863 107.731 47.155C107.421 47.4237 107.039 47.5993 106.584 47.682C106.129 47.7853 105.675 47.7853 105.22 47.682C104.765 47.5993 104.383 47.4237 104.073 47.155C103.763 46.8863 103.608 46.5247 103.608 46.07C103.422 46.4627 103.133 46.6797 102.74 46.721C102.347 46.7623 101.965 46.69 101.593 46.504C101.221 46.318 100.932 46.0597 100.725 45.729C100.539 45.3777 100.549 45.016 100.756 44.644C100.446 44.8093 100.115 44.7887 99.7642 44.582C99.4128 44.3547 99.1028 44.0343 98.8342 43.621C98.5655 43.2077 98.3692 42.784 98.2452 42.35C98.1418 41.8953 98.1625 41.5233 98.3072 41.234C97.9352 41.5027 97.5322 41.5543 97.0982 41.389C97.2015 41.8023 97.2222 42.2363 97.1602 42.691C97.0982 43.1457 96.9638 43.5383 96.7572 43.869C96.5505 44.179 96.2612 44.334 95.8892 44.334C96.1578 44.6233 96.2715 44.9333 96.2302 45.264C96.1888 45.5947 96.0442 45.8737 95.7962 46.101C95.5482 46.3283 95.2588 46.4523 94.9282 46.473C94.5975 46.4937 94.2875 46.3593 93.9981 46.07C93.9981 46.4833 93.8638 46.7933 93.5952 47C93.3472 47.2273 93.0268 47.31 92.6341 47.248C92.2415 47.2067 91.8488 46.9897 91.4561 46.597C91.0841 46.2043 90.7638 45.605 90.4951 44.799C90.2471 43.9723 90.1335 42.8977 90.1541 41.575ZM96.6642 30.725C96.6848 30.725 96.7055 30.725 96.7262 30.725C96.7468 30.725 96.7675 30.7147 96.7882 30.694L96.6642 30.725ZM117.525 42.691C117.008 42.691 116.615 42.5773 116.347 42.35C116.099 42.102 115.975 41.823 115.975 41.513C115.975 41.203 116.099 40.9343 116.347 40.707C116.615 40.4797 117.008 40.366 117.525 40.366C116.822 40.366 116.347 40.2523 116.099 40.025C115.871 39.7977 115.871 39.5703 116.099 39.343C116.347 39.1157 116.822 39.002 117.525 39.002C117.008 39.002 116.626 38.8883 116.378 38.661C116.13 38.413 116.006 38.134 116.006 37.824C116.006 37.514 116.13 37.2453 116.378 37.018C116.626 36.77 117.008 36.646 117.525 36.646C116.925 36.646 116.471 36.4703 116.161 36.119C115.871 35.747 115.727 35.3233 115.727 34.848C115.727 34.3727 115.871 33.9593 116.161 33.608C116.471 33.236 116.925 33.05 117.525 33.05C116.987 33.05 116.584 32.864 116.316 32.492C116.047 32.0993 115.913 31.655 115.913 31.159C115.913 30.6423 116.047 30.198 116.316 29.826C116.584 29.4333 116.987 29.237 117.525 29.237C117.029 29.2163 116.657 29.0613 116.409 28.772C116.181 28.462 116.068 28.1107 116.068 27.718C116.068 27.3253 116.192 26.9843 116.44 26.695C116.688 26.385 117.06 26.23 117.556 26.23C117.556 25.61 117.7 25.1553 117.99 24.866C118.279 24.556 118.61 24.401 118.982 24.401C119.354 24.401 119.684 24.556 119.974 24.866C120.263 25.1553 120.408 25.61 120.408 26.23C120.408 25.6513 120.542 25.2173 120.811 24.928C121.1 24.6387 121.42 24.494 121.772 24.494C122.123 24.494 122.433 24.6387 122.702 24.928C122.991 25.2173 123.136 25.6513 123.136 26.23C123.776 26.1267 124.221 26.199 124.469 26.447C124.717 26.6743 124.758 26.943 124.593 27.253C124.448 27.563 124.055 27.7697 123.415 27.873C124.117 27.873 124.613 28.0693 124.903 28.462C125.213 28.834 125.316 29.2473 125.213 29.702C125.109 30.136 124.81 30.4563 124.314 30.663C124.686 30.725 124.985 30.911 125.213 31.221C125.461 31.5103 125.605 31.8307 125.647 32.182C126.06 31.934 126.535 31.8307 127.073 31.872C127.631 31.9133 128.075 32.1097 128.406 32.461C128.426 32.1097 128.571 31.8823 128.84 31.779C128.633 31.407 128.643 31.0143 128.871 30.601C129.119 30.1877 129.594 29.981 130.297 29.981C129.677 29.981 129.212 29.795 128.902 29.423C128.612 29.051 128.468 28.617 128.468 28.121C128.468 27.625 128.612 27.191 128.902 26.819C129.212 26.447 129.677 26.261 130.297 26.261C130.297 25.7443 130.441 25.3517 130.731 25.083C131.02 24.8143 131.351 24.68 131.723 24.68C132.095 24.6593 132.425 24.7833 132.715 25.052C133.025 25.3207 133.18 25.7133 133.18 26.23C133.18 25.6307 133.293 25.176 133.521 24.866C133.748 24.556 134.006 24.401 134.296 24.401C134.585 24.401 134.843 24.556 135.071 24.866C135.298 25.176 135.412 25.6307 135.412 26.23C135.784 26.1473 136.104 26.2403 136.373 26.509C136.641 26.757 136.827 27.0877 136.931 27.501C137.034 27.9143 137.024 28.307 136.9 28.679C136.796 29.0303 136.559 29.2577 136.187 29.361C136.786 29.361 137.23 29.5677 137.52 29.981C137.809 30.3737 137.954 30.849 137.954 31.407C137.954 31.9443 137.809 32.4197 137.52 32.833C137.23 33.2257 136.786 33.422 136.187 33.422C136.807 33.422 137.261 33.608 137.551 33.98C137.861 34.352 138.016 34.786 138.016 35.282C138.016 35.778 137.861 36.212 137.551 36.584C137.261 36.956 136.807 37.142 136.187 37.142C136.807 37.142 137.261 37.3383 137.551 37.731C137.861 38.1237 138.016 38.5887 138.016 39.126C138.016 39.6427 137.861 40.1077 137.551 40.521C137.261 40.9137 136.807 41.11 136.187 41.11C136.848 41.11 137.282 41.2133 137.489 41.42C137.716 41.606 137.716 41.8023 137.489 42.009C137.282 42.2157 136.848 42.319 136.187 42.319C136.662 42.319 137.013 42.4533 137.241 42.722C137.489 42.9907 137.613 43.3007 137.613 43.652C137.613 43.9827 137.489 44.2823 137.241 44.551C137.013 44.799 136.662 44.923 136.187 44.923C136.373 45.3363 136.383 45.7083 136.218 46.039C136.052 46.349 135.804 46.5763 135.474 46.721C135.143 46.8657 134.802 46.8967 134.451 46.814C134.12 46.7313 133.862 46.4833 133.676 46.07C133.696 46.6073 133.531 47.0103 133.18 47.279C132.849 47.5683 132.456 47.713 132.002 47.713C131.568 47.7337 131.175 47.6097 130.824 47.341C130.493 47.093 130.317 46.7003 130.297 46.163C129.883 46.163 129.563 45.977 129.336 45.605C129.108 45.233 128.964 44.799 128.902 44.303C128.86 43.7863 128.912 43.3007 129.057 42.846C129.201 42.3707 129.449 42.04 129.801 41.854C129.16 41.9573 128.654 41.792 128.282 41.358C127.93 40.9033 127.796 40.4177 127.879 39.901C127.114 40.149 126.37 40.1387 125.647 39.87C125.688 40.118 125.626 40.335 125.461 40.521C125.316 40.707 125.099 40.8207 124.81 40.862C125.182 41.1307 125.254 41.451 125.027 41.823C124.799 42.1743 124.262 42.35 123.415 42.35C124.221 42.35 124.748 42.4637 124.996 42.691C125.264 42.9183 125.264 43.1457 124.996 43.373C124.748 43.6003 124.221 43.714 123.415 43.714C123.911 43.714 124.283 43.8277 124.531 44.055C124.799 44.2823 124.934 44.551 124.934 44.861C124.934 45.171 124.799 45.45 124.531 45.698C124.283 45.9253 123.911 46.039 123.415 46.039C123.435 46.8243 123.353 47.341 123.167 47.589C122.981 47.8577 122.784 47.8577 122.578 47.589C122.392 47.341 122.288 46.8347 122.268 46.07C122.268 46.566 122.154 46.9277 121.927 47.155C121.699 47.403 121.441 47.527 121.152 47.527C120.862 47.527 120.604 47.403 120.377 47.155C120.149 46.9277 120.036 46.566 120.036 46.07C120.036 46.876 119.922 47.4133 119.695 47.682C119.467 47.9507 119.24 47.9507 119.013 47.682C118.785 47.4133 118.672 46.876 118.672 46.07C118.672 46.6073 118.61 46.9897 118.486 47.217C118.362 47.465 118.217 47.4857 118.052 47.279C117.907 47.0723 117.773 46.6073 117.649 45.884C117.545 45.14 117.504 44.0757 117.525 42.691ZM148.888 46.349C148.806 46.845 148.568 47.1757 148.175 47.341C147.803 47.527 147.39 47.5787 146.935 47.496C146.501 47.4133 146.14 47.217 145.85 46.907C145.582 46.597 145.499 46.194 145.602 45.698C145.354 46.0907 145.034 46.3077 144.641 46.349C144.249 46.3697 143.877 46.2767 143.525 46.07C143.195 45.8633 142.957 45.5843 142.812 45.233C142.668 44.861 142.709 44.4787 142.936 44.086C142.42 44.4993 141.996 44.6853 141.665 44.644C141.355 44.6027 141.211 44.427 141.231 44.117C141.273 43.7863 141.562 43.4143 142.099 43.001C141.789 43.063 141.51 42.97 141.262 42.722C141.014 42.474 140.808 42.133 140.642 41.699C140.477 41.265 140.374 40.831 140.332 40.397C140.291 39.9423 140.322 39.5393 140.425 39.188C140.529 38.8367 140.725 38.63 141.014 38.568C140.539 38.568 140.177 38.382 139.929 38.01C139.702 37.638 139.588 37.2143 139.588 36.739C139.588 36.243 139.702 35.809 139.929 35.437C140.177 35.065 140.539 34.879 141.014 34.879C140.456 34.879 140.033 34.7343 139.743 34.445C139.475 34.135 139.34 33.7837 139.34 33.391C139.34 32.9983 139.475 32.6573 139.743 32.368C140.033 32.0787 140.456 31.934 141.014 31.934C140.456 31.934 140.033 31.7583 139.743 31.407C139.454 31.035 139.309 30.6113 139.309 30.136C139.309 29.6607 139.454 29.2473 139.743 28.896C140.033 28.524 140.456 28.338 141.014 28.338C140.477 28.338 140.074 28.2347 139.805 28.028C139.537 27.8213 139.402 27.5837 139.402 27.315C139.402 27.0257 139.537 26.7777 139.805 26.571C140.074 26.3643 140.477 26.261 141.014 26.261C141.014 25.7237 141.2 25.3207 141.572 25.052C141.965 24.7627 142.42 24.618 142.936 24.618C143.453 24.618 143.908 24.7523 144.3 25.021C144.693 25.2897 144.889 25.6927 144.889 26.23C144.889 25.6927 144.993 25.2897 145.199 25.021C145.427 24.7317 145.675 24.587 145.943 24.587C146.212 24.587 146.45 24.7317 146.656 25.021C146.884 25.2897 146.997 25.6927 146.997 26.23C147.597 26.2507 148.041 26.478 148.33 26.912C148.62 27.3253 148.754 27.811 148.733 28.369C148.733 28.927 148.578 29.423 148.268 29.857C147.958 30.2703 147.504 30.4667 146.904 30.446C147.4 30.446 147.762 30.5907 147.989 30.88C148.237 31.1693 148.361 31.5 148.361 31.872C148.361 32.244 148.237 32.5747 147.989 32.864C147.762 33.1327 147.4 33.267 146.904 33.267C147.71 33.267 148.237 33.3807 148.485 33.608C148.754 33.8353 148.754 34.0627 148.485 34.29C148.237 34.5173 147.71 34.631 146.904 34.631C147.359 34.631 147.7 34.7757 147.927 35.065C148.155 35.3543 148.279 35.6953 148.299 36.088C148.32 36.46 148.227 36.8113 148.02 37.142C147.834 37.452 147.535 37.638 147.121 37.7C147.659 37.6587 148.072 37.7517 148.361 37.979C148.651 38.2063 148.806 38.4853 148.826 38.816C148.868 39.1467 148.775 39.4463 148.547 39.715C148.899 39.715 149.054 39.8597 149.012 40.149C149.674 39.8597 150.335 39.8803 150.996 40.211C151.017 39.7977 151.172 39.467 151.461 39.219C151.771 38.9503 152.154 38.847 152.608 38.909C152.319 38.661 152.123 38.3097 152.019 37.855C151.916 37.4003 151.895 36.9353 151.957 36.46C152.019 35.9847 152.164 35.5817 152.391 35.251C152.639 34.9203 152.96 34.755 153.352 34.755C152.774 34.755 152.34 34.5483 152.05 34.135C151.782 33.701 151.647 33.2153 151.647 32.678C151.647 32.12 151.782 31.6343 152.05 31.221C152.34 30.787 152.774 30.57 153.352 30.57C152.856 30.57 152.484 30.415 152.236 30.105C151.988 29.795 151.864 29.4437 151.864 29.051C151.864 28.6377 151.988 28.276 152.236 27.966C152.484 27.656 152.856 27.501 153.352 27.501C152.939 27.2117 152.732 26.912 152.732 26.602C152.753 26.292 152.908 26.0853 153.197 25.982C153.487 25.858 153.838 25.9407 154.251 26.23C154.251 25.6513 154.365 25.2173 154.592 24.928C154.82 24.6387 155.078 24.494 155.367 24.494C155.657 24.494 155.915 24.6387 156.142 24.928C156.37 25.2173 156.483 25.6513 156.483 26.23C156.483 25.6927 156.587 25.2897 156.793 25.021C157.021 24.7317 157.269 24.587 157.537 24.587C157.806 24.587 158.044 24.7317 158.25 25.021C158.478 25.2897 158.591 25.6927 158.591 26.23C159.067 26.1267 159.449 26.2197 159.738 26.509C160.048 26.7777 160.245 27.129 160.327 27.563C160.431 27.9763 160.389 28.3793 160.203 28.772C160.038 29.144 159.718 29.3713 159.242 29.454C159.718 29.454 160.079 29.6607 160.327 30.074C160.575 30.4873 160.699 30.9627 160.699 31.5C160.699 32.0373 160.575 32.5127 160.327 32.926C160.079 33.3187 159.718 33.515 159.242 33.515C159.676 33.515 160.028 33.67 160.296 33.98C160.565 34.2693 160.741 34.6413 160.823 35.096C160.906 35.53 160.906 35.964 160.823 36.398C160.741 36.832 160.565 37.204 160.296 37.514C160.028 37.8033 159.676 37.948 159.242 37.948C159.945 37.948 160.41 38.0617 160.637 38.289C160.885 38.5163 160.885 38.7437 160.637 38.971C160.41 39.1983 159.945 39.312 159.242 39.312C160.028 39.4153 160.534 39.622 160.761 39.932C160.989 40.2213 160.947 40.49 160.637 40.738C160.348 40.9653 159.811 41.0273 159.025 40.924C159.501 41.172 159.78 41.513 159.862 41.947C159.945 42.381 159.883 42.8047 159.676 43.218C159.47 43.6107 159.16 43.9 158.746 44.086C158.354 44.272 157.909 44.2307 157.413 43.962C157.827 44.458 158.023 44.861 158.002 45.171C158.002 45.4603 157.847 45.5947 157.537 45.574C157.248 45.5327 156.897 45.264 156.483 44.768C156.731 45.2847 156.804 45.729 156.7 46.101C156.618 46.4523 156.432 46.7003 156.142 46.845C155.874 46.969 155.564 46.9587 155.212 46.814C154.882 46.6487 154.592 46.3077 154.344 45.791C154.427 46.3283 154.262 46.752 153.848 47.062C153.456 47.3927 152.939 47.589 152.298 47.651C151.678 47.7337 151.048 47.6717 150.407 47.465C149.787 47.2583 149.281 46.8863 148.888 46.349ZM164.059 42.071C163.501 42.071 163.077 41.9057 162.788 41.575C162.498 41.2237 162.354 40.8207 162.354 40.366C162.354 39.8907 162.498 39.4877 162.788 39.157C163.077 38.8057 163.501 38.63 164.059 38.63C163.542 38.63 163.149 38.4647 162.881 38.134C162.612 37.8033 162.478 37.4313 162.478 37.018C162.478 36.584 162.612 36.212 162.881 35.902C163.149 35.5713 163.542 35.406 164.059 35.406C163.666 35.406 163.346 35.2613 163.098 34.972C162.87 34.662 162.715 34.29 162.633 33.856C162.571 33.4013 162.571 32.957 162.633 32.523C162.715 32.089 162.87 31.7273 163.098 31.438C163.346 31.128 163.666 30.973 164.059 30.973C163.335 30.973 162.85 30.8077 162.602 30.477C162.354 30.1463 162.354 29.8157 162.602 29.485C162.85 29.1543 163.335 28.989 164.059 28.989C163.604 28.9477 163.263 28.7823 163.036 28.493C162.829 28.2037 162.736 27.8833 162.757 27.532C162.777 27.16 162.912 26.85 163.16 26.602C163.408 26.3333 163.759 26.2093 164.214 26.23C164.214 25.6307 164.389 25.176 164.741 24.866C165.092 24.556 165.495 24.401 165.95 24.401C166.404 24.401 166.807 24.556 167.159 24.866C167.51 25.176 167.686 25.6307 167.686 26.23C167.686 25.8167 167.841 25.4963 168.151 25.269C168.481 25.021 168.874 24.8557 169.329 24.773C169.804 24.6903 170.269 24.6903 170.724 24.773C171.199 24.8557 171.592 25.021 171.902 25.269C172.232 25.4963 172.398 25.8167 172.398 26.23C172.398 25.6307 172.542 25.1863 172.832 24.897C173.121 24.587 173.452 24.432 173.824 24.432C174.216 24.432 174.547 24.587 174.816 24.897C175.105 25.1863 175.25 25.641 175.25 26.261C175.312 25.7237 175.456 25.3413 175.684 25.114C175.932 24.866 176.19 24.7627 176.459 24.804C176.748 24.8247 176.986 24.9797 177.172 25.269C177.358 25.5583 177.42 25.9613 177.358 26.478C177.544 25.8167 177.792 25.4033 178.102 25.238C178.412 25.0727 178.649 25.145 178.815 25.455C179.001 25.7443 179.001 26.2197 178.815 26.881C179.104 26.5297 179.445 26.354 179.838 26.354C180.23 26.354 180.582 26.4883 180.892 26.757C181.202 27.005 181.398 27.315 181.481 27.687C181.584 28.059 181.491 28.431 181.202 28.803C181.76 28.679 182.204 28.741 182.535 28.989C182.886 29.2163 183.103 29.5263 183.186 29.919C183.289 30.3117 183.237 30.694 183.031 31.066C182.845 31.438 182.473 31.686 181.915 31.81C182.39 31.9753 182.71 32.2027 182.876 32.492C183.041 32.7813 183.072 33.0603 182.969 33.329C182.865 33.5977 182.659 33.794 182.349 33.918C182.039 34.042 181.646 34.011 181.171 33.825C181.646 34.445 181.853 34.9513 181.791 35.344C181.729 35.716 181.501 35.8917 181.109 35.871C180.716 35.8503 180.282 35.53 179.807 34.91C180.034 35.1993 180.158 35.499 180.179 35.809C180.716 36.0157 181.181 36.3463 181.574 36.801C181.966 37.2557 182.039 37.7 181.791 38.134C182.287 38.01 182.69 38.0203 183 38.165C183.31 38.289 183.496 38.4853 183.558 38.754C183.64 39.0227 183.589 39.2913 183.403 39.56C183.217 39.8287 182.876 40.0353 182.38 40.18C182.958 40.304 183.361 40.5313 183.589 40.862C183.837 41.1927 183.919 41.544 183.837 41.916C183.775 42.2673 183.568 42.5567 183.217 42.784C182.886 43.0113 182.421 43.063 181.822 42.939C182.235 43.3317 182.442 43.7347 182.442 44.148C182.442 44.5613 182.307 44.9127 182.039 45.202C181.77 45.4707 181.429 45.6153 181.016 45.636C180.602 45.636 180.189 45.4397 179.776 45.047C180.044 45.6877 180.127 46.163 180.024 46.473C179.941 46.7623 179.755 46.845 179.466 46.721C179.176 46.5763 178.897 46.1837 178.629 45.543C178.691 45.9977 178.567 46.38 178.257 46.69C177.967 47 177.585 47.2273 177.11 47.372C176.655 47.5167 176.18 47.5683 175.684 47.527C175.208 47.4857 174.795 47.341 174.444 47.093C174.092 46.8657 173.886 46.5247 173.824 46.07C173.824 46.628 173.658 47.0517 173.328 47.341C172.997 47.6303 172.604 47.775 172.15 47.775C171.716 47.775 171.333 47.6303 171.003 47.341C170.672 47.0517 170.507 46.628 170.507 46.07C170.507 46.5453 170.372 46.8967 170.104 47.124C169.856 47.372 169.556 47.496 169.205 47.496C168.853 47.496 168.543 47.372 168.275 47.124C168.027 46.8967 167.903 46.5453 167.903 46.07C167.903 46.4627 167.768 46.7623 167.5 46.969C167.252 47.155 166.931 47.2273 166.539 47.186C166.146 47.1447 165.753 46.9483 165.361 46.597C164.989 46.2457 164.668 45.7083 164.4 44.985C164.152 44.241 164.038 43.2697 164.059 42.071ZM169.949 32.275C170.279 32.275 170.517 32.4197 170.662 32.709C170.827 32.9777 170.93 33.2773 170.972 33.608C171.013 33.9387 171.034 34.1763 171.034 34.321C171.075 33.9903 171.22 33.763 171.468 33.639C171.716 33.515 171.974 33.5047 172.243 33.608C172.511 33.6907 172.677 33.8767 172.739 34.166C172.697 33.794 172.873 33.5253 173.266 33.36C173.658 33.174 174.01 33.1533 174.32 33.298C174.278 33.0707 174.32 32.8433 174.444 32.616C174.588 32.368 174.785 32.2027 175.033 32.12C174.826 31.996 174.661 31.7997 174.537 31.531C174.433 31.2417 174.402 30.9833 174.444 30.756C174.278 30.88 174.134 30.9007 174.01 30.818C173.906 30.7353 173.875 30.5803 173.917 30.353C173.669 30.663 173.297 30.8077 172.801 30.787C172.325 30.7457 171.984 30.5597 171.778 30.229C171.778 30.477 171.685 30.694 171.499 30.88C171.313 31.0453 171.096 31.128 170.848 31.128C170.951 31.376 170.92 31.6343 170.755 31.903C170.61 32.151 170.341 32.275 169.949 32.275ZM172.77 42.598C172.749 42.2467 172.883 42.009 173.173 41.885C173.483 41.7403 173.782 41.7093 174.072 41.792C173.968 41.4407 173.989 41.0687 174.134 40.676C174.299 40.2627 174.537 39.9527 174.847 39.746C174.516 39.6013 174.216 39.3843 173.948 39.095C173.679 38.785 173.524 38.475 173.483 38.165C173.317 38.4337 173.049 38.599 172.677 38.661C172.305 38.723 171.953 38.7023 171.623 38.599C171.685 38.9297 171.592 39.2397 171.344 39.529C171.116 39.8183 170.817 39.9423 170.445 39.901C170.755 40.087 170.961 40.3867 171.065 40.8C171.168 41.2133 171.189 41.5853 171.127 41.916C171.437 41.7713 171.788 41.761 172.181 41.885C172.573 41.9883 172.77 42.226 172.77 42.598Z" fill="white"/>
<path d="M34.4458 43.187C33.7018 43.187 33.2058 43.0527 32.9578 42.784C32.7098 42.5153 32.7098 42.2467 32.9578 41.978C33.2058 41.7093 33.7018 41.575 34.4458 41.575C34.0738 41.575 33.7741 41.42 33.5468 41.11C33.3195 40.7793 33.1645 40.3763 33.0818 39.901C33.0198 39.4257 33.0198 38.9503 33.0818 38.475C33.1645 37.979 33.3195 37.576 33.5468 37.266C33.7741 36.9353 34.0738 36.77 34.4458 36.77C33.9291 36.77 33.5365 36.6047 33.2678 36.274C32.9991 35.9227 32.8648 35.53 32.8648 35.096C32.8648 34.662 32.9991 34.2797 33.2678 33.949C33.5365 33.5977 33.9291 33.422 34.4458 33.422C33.7431 33.422 33.2678 33.2877 33.0198 33.019C32.7925 32.7503 32.7925 32.4817 33.0198 32.213C33.2678 31.9443 33.7431 31.81 34.4458 31.81C33.7225 31.81 33.2368 31.7067 32.9888 31.5C32.7615 31.2933 32.7615 31.097 32.9888 30.911C33.2368 30.7043 33.7225 30.601 34.4458 30.601C33.7225 30.601 33.2368 30.477 32.9888 30.229C32.7615 29.981 32.7615 29.733 32.9888 29.485C33.2368 29.237 33.7225 29.113 34.4458 29.113C33.7845 29.113 33.3401 28.958 33.1128 28.648C32.9061 28.338 32.9061 28.028 33.1128 27.718C33.3401 27.408 33.7845 27.253 34.4458 27.253C34.1151 26.7777 34.0221 26.3747 34.1668 26.044C34.3115 25.7133 34.5595 25.548 34.9108 25.548C35.2828 25.5273 35.6341 25.7547 35.9648 26.23C35.9648 25.424 36.1198 24.897 36.4298 24.649C36.7398 24.3803 37.0498 24.3803 37.3598 24.649C37.6698 24.897 37.8248 25.424 37.8248 26.23C37.8248 25.6307 37.9695 25.1863 38.2588 24.897C38.5481 24.6077 38.8788 24.463 39.2508 24.463C39.6228 24.463 39.9535 24.6077 40.2428 24.897C40.5321 25.1863 40.6768 25.6307 40.6768 26.23C40.6768 25.734 40.8111 25.3723 41.0798 25.145C41.3691 24.897 41.6895 24.773 42.0408 24.773C42.3921 24.773 42.7021 24.897 42.9708 25.145C43.2601 25.3723 43.4048 25.734 43.4048 26.23C43.4668 25.7547 43.7148 25.424 44.1488 25.238C44.6035 25.052 45.0995 25.0003 45.6368 25.083C46.1741 25.145 46.6288 25.3207 47.0008 25.61C47.3728 25.8993 47.5278 26.2817 47.4658 26.757C47.7758 26.013 48.0961 25.5687 48.4268 25.424C48.7575 25.2793 48.9848 25.3827 49.1088 25.734C49.2328 26.0647 49.1501 26.602 48.8608 27.346C49.1295 27.0773 49.4601 27.0257 49.8528 27.191C50.2661 27.3357 50.6485 27.594 50.9998 27.966C51.3718 28.338 51.6198 28.7307 51.7438 29.144C51.8885 29.5573 51.8265 29.8983 51.5578 30.167C52.0951 30.043 52.5188 30.074 52.8288 30.26C53.1595 30.4253 53.3558 30.663 53.4178 30.973C53.5005 31.2623 53.4281 31.5517 53.2008 31.841C52.9941 32.1303 52.6221 32.337 52.0848 32.461C52.4568 32.5643 52.6841 32.8433 52.7668 33.298C52.8495 33.732 52.8185 34.2177 52.6738 34.755C52.5291 35.2717 52.3018 35.7057 51.9918 36.057C51.7025 36.3877 51.3718 36.5013 50.9998 36.398C51.3925 36.8527 51.5165 37.297 51.3718 37.731C51.2478 38.165 51.0101 38.4853 50.6588 38.692C50.7828 39.002 50.5348 39.281 49.9148 39.529C50.3075 39.5497 50.6588 39.7047 50.9688 39.994C51.2788 40.2833 51.5061 40.6347 51.6508 41.048C51.7955 41.4407 51.8161 41.8333 51.7128 42.226C51.6095 42.6187 51.3511 42.939 50.9378 43.187C51.5578 42.8357 52.0331 42.691 52.3638 42.753C52.7151 42.7943 52.8598 42.9597 52.7978 43.249C52.7358 43.5177 52.4361 43.8277 51.8988 44.179C52.3741 43.931 52.7668 43.9103 53.0768 44.117C53.3868 44.303 53.5315 44.5923 53.5108 44.985C53.5108 45.357 53.2628 45.7187 52.7668 46.07C52.7668 46.4833 52.6118 46.814 52.3018 47.062C52.0125 47.31 51.6508 47.4753 51.2168 47.558C50.7828 47.6407 50.3488 47.6407 49.9148 47.558C49.4808 47.4753 49.1088 47.31 48.7988 47.062C48.5095 46.814 48.3648 46.4833 48.3648 46.07C48.1788 46.4833 47.8998 46.7313 47.5278 46.814C47.1558 46.876 46.7838 46.8243 46.4118 46.659C46.0398 46.4937 45.7608 46.2457 45.5748 45.915C45.3888 45.5637 45.3888 45.1917 45.5748 44.799C45.1821 44.9643 44.8205 44.985 44.4898 44.861C44.1798 44.7163 43.9421 44.489 43.7768 44.179C43.6115 43.869 43.5495 43.5487 43.5908 43.218C43.6528 42.8667 43.8491 42.5773 44.1798 42.35C43.7665 42.536 43.3428 42.4843 42.9088 42.195C42.4955 41.9057 42.1958 41.5337 42.0098 41.079C41.8651 41.1617 41.6998 41.203 41.5138 41.203C41.6171 41.575 41.5655 41.947 41.3588 42.319C41.1728 42.6703 40.8318 42.846 40.3358 42.846C40.7491 42.846 41.0591 42.9597 41.2658 43.187C41.4725 43.4143 41.5758 43.6727 41.5758 43.962C41.5758 44.2513 41.4725 44.5097 41.2658 44.737C41.0591 44.9437 40.7491 45.047 40.3358 45.047C40.6458 45.4603 40.7491 45.822 40.6458 46.132C40.5425 46.4213 40.3255 46.5867 39.9948 46.628C39.6848 46.6487 39.3748 46.4627 39.0648 46.07C39.0648 46.566 38.8995 46.9483 38.5688 47.217C38.2588 47.4857 37.8661 47.62 37.3908 47.62C36.9361 47.6407 36.4815 47.496 36.0268 47.186C35.5721 46.8967 35.1898 46.4317 34.8798 45.791C34.5698 45.1297 34.4251 44.2617 34.4458 43.187ZM40.3358 33.329C40.7491 33.329 41.0385 33.484 41.2038 33.794C41.3898 34.0833 41.4725 34.3623 41.4518 34.631C41.7825 34.383 42.2268 34.259 42.7848 34.259C43.3428 34.2383 43.7768 34.3417 44.0868 34.569C44.0661 34.2177 44.1798 33.8353 44.4278 33.422C44.6758 32.988 44.9548 32.709 45.2648 32.585C44.9961 32.4817 44.9238 32.3267 45.0478 32.12C44.6551 32.2233 44.3348 32.1303 44.0868 31.841C43.8595 31.5517 43.8285 31.221 43.9938 30.849C43.7458 30.973 43.4358 31.035 43.0638 31.035C42.7125 31.035 42.3818 30.9833 42.0718 30.88C41.7618 30.756 41.5655 30.5803 41.4828 30.353C41.5241 30.7663 41.4001 31.0143 41.1108 31.097C41.1315 31.3037 41.0798 31.5 40.9558 31.686C40.8318 31.872 40.6251 31.965 40.3358 31.965C40.7285 31.965 40.9868 32.0787 41.1108 32.306C41.2555 32.5333 41.2555 32.7607 41.1108 32.988C40.9868 33.2153 40.7285 33.329 40.3358 33.329ZM56.5472 45.915C56.1338 45.915 55.7928 45.76 55.5242 45.45C55.2762 45.1193 55.1108 44.7163 55.0282 44.241C54.9455 43.745 54.9455 43.2593 55.0282 42.784C55.1108 42.3087 55.2762 41.916 55.5242 41.606C55.7928 41.2753 56.1338 41.11 56.5472 41.11C56.1545 41.11 55.8342 40.955 55.5862 40.645C55.3588 40.335 55.2038 39.9527 55.1212 39.498C55.0592 39.0433 55.0592 38.5887 55.1212 38.134C55.2038 37.6793 55.3588 37.297 55.5862 36.987C55.8342 36.677 56.1545 36.522 56.5472 36.522C55.9272 36.522 55.4622 36.4187 55.1522 36.212C54.8628 35.9847 54.7182 35.7367 54.7182 35.468C54.7182 35.1993 54.8628 34.9617 55.1522 34.755C55.4622 34.5277 55.9272 34.414 56.5472 34.414C56.1545 34.414 55.8445 34.259 55.6172 33.949C55.3898 33.639 55.2348 33.2567 55.1522 32.802C55.0902 32.3473 55.0902 31.8927 55.1522 31.438C55.2348 30.9833 55.3898 30.6113 55.6172 30.322C55.8445 30.012 56.1545 29.857 56.5472 29.857C55.7412 29.857 55.1935 29.7227 54.9042 29.454C54.6355 29.1853 54.6355 28.9167 54.9042 28.648C55.1935 28.3793 55.7412 28.245 56.5472 28.245C56.2578 27.935 56.1338 27.6043 56.1752 27.253C56.2372 26.9017 56.4025 26.602 56.6712 26.354C56.9398 26.0853 57.2498 25.9303 57.6012 25.889C57.9525 25.827 58.2728 25.9407 58.5622 26.23C58.5622 25.672 58.6862 25.2587 58.9342 24.99C59.2028 24.7007 59.5128 24.556 59.8642 24.556C60.2155 24.556 60.5152 24.7007 60.7632 24.99C61.0318 25.2587 61.1662 25.672 61.1662 26.23C61.5588 25.9407 61.9308 25.8373 62.2822 25.92C62.6335 25.982 62.9125 26.1577 63.1192 26.447C63.3258 26.7157 63.3982 27.036 63.3362 27.408C63.2948 27.7593 63.0778 28.0797 62.6852 28.369C63.1812 28.369 63.5532 28.524 63.8012 28.834C64.0698 29.1233 64.2042 29.4643 64.2042 29.857C64.2042 30.2497 64.0698 30.5907 63.8012 30.88C63.5532 31.1693 63.1812 31.314 62.6852 31.314C63.4705 31.314 63.9872 31.4173 64.2352 31.624C64.5038 31.8307 64.5038 32.0373 64.2352 32.244C63.9872 32.4507 63.4705 32.554 62.6852 32.554C63.1605 32.554 63.5118 32.678 63.7392 32.926C63.9665 33.1533 64.0802 33.422 64.0802 33.732C64.0802 34.042 63.9665 34.321 63.7392 34.569C63.5118 34.7963 63.1605 34.91 62.6852 34.91C63.2845 34.91 63.7288 35.096 64.0182 35.468C64.3282 35.8193 64.4832 36.2327 64.4832 36.708C64.4832 37.1833 64.3282 37.607 64.0182 37.979C63.7288 38.3303 63.2845 38.506 62.6852 38.506C63.4085 38.506 63.8838 38.6403 64.1112 38.909C64.3592 39.1777 64.3592 39.4463 64.1112 39.715C63.8838 39.9837 63.4085 40.118 62.6852 40.118C63.0778 40.118 63.3878 40.273 63.6152 40.583C63.8632 40.8723 64.0182 41.2443 64.0802 41.699C64.1628 42.1537 64.1628 42.6083 64.0802 43.063C64.0182 43.5177 63.8632 43.9 63.6152 44.21C63.3878 44.52 63.0778 44.675 62.6852 44.675C62.9125 45.0057 62.9745 45.326 62.8712 45.636C62.7885 45.9253 62.6128 46.163 62.3442 46.349C62.0755 46.535 61.7862 46.6177 61.4762 46.597C61.1662 46.5763 60.8975 46.4007 60.6702 46.07C60.6702 46.4833 60.5255 46.8037 60.2362 47.031C59.9675 47.279 59.6162 47.4443 59.1822 47.527C58.7688 47.6097 58.3555 47.5993 57.9422 47.496C57.5288 47.4133 57.1878 47.2377 56.9192 46.969C56.6505 46.7003 56.5265 46.349 56.5472 45.915ZM74.3545 46.256C74.2099 46.752 73.9412 47.0827 73.5485 47.248C73.1559 47.4133 72.7425 47.434 72.3085 47.31C71.8952 47.2067 71.5542 46.9897 71.2855 46.659C71.0375 46.3077 70.9859 45.8737 71.1305 45.357C70.7585 45.977 70.3865 46.318 70.0145 46.38C69.6425 46.4213 69.3945 46.2663 69.2705 45.915C69.1465 45.543 69.2705 45.0573 69.6425 44.458C69.2705 44.7267 68.8779 44.7783 68.4645 44.613C68.0719 44.427 67.7412 44.1377 67.4725 43.745C67.2039 43.3317 67.0592 42.908 67.0385 42.474C67.0179 42.04 67.1935 41.6887 67.5655 41.42C66.9042 41.606 66.4289 41.6267 66.1395 41.482C65.8709 41.3373 65.8192 41.141 65.9845 40.893C66.1705 40.6243 66.6045 40.4073 67.2865 40.242C66.7285 40.2627 66.3049 40.1387 66.0155 39.87C65.7262 39.6013 65.5609 39.281 65.5195 38.909C65.4989 38.5163 65.6125 38.165 65.8605 37.855C66.1292 37.545 66.5425 37.3693 67.1005 37.328C66.6252 37.328 66.2635 37.1317 66.0155 36.739C65.7882 36.3257 65.6745 35.871 65.6745 35.375C65.6745 34.8583 65.7985 34.4037 66.0465 34.011C66.2945 33.6183 66.6562 33.422 67.1315 33.422C66.8009 33.298 66.5839 33.05 66.4805 32.678C66.3979 32.306 66.3979 31.8927 66.4805 31.438C66.5632 30.9627 66.7182 30.5183 66.9455 30.105C67.1729 29.671 67.4312 29.3403 67.7205 29.113C68.0305 28.865 68.3509 28.803 68.6815 28.927C68.3922 28.5343 68.3095 28.1417 68.4335 27.749C68.5575 27.3563 68.7952 27.0257 69.1465 26.757C69.4979 26.4883 69.8802 26.354 70.2935 26.354C70.7069 26.3333 71.0582 26.5193 71.3475 26.912C71.2649 26.478 71.3372 26.106 71.5645 25.796C71.8125 25.4653 72.1432 25.2173 72.5565 25.052C72.9699 24.866 73.4039 24.773 73.8585 24.773C74.3132 24.7523 74.7059 24.835 75.0365 25.021C75.3879 25.207 75.6152 25.517 75.7185 25.951C75.7392 25.4343 75.9252 25.052 76.2765 24.804C76.6279 24.556 77.0205 24.4423 77.4545 24.463C77.9092 24.4837 78.3019 24.6387 78.6325 24.928C78.9632 25.1967 79.1182 25.5893 79.0975 26.106C79.2629 25.6513 79.5522 25.3517 79.9655 25.207C80.3789 25.0417 80.8232 25.0003 81.2985 25.083C81.7945 25.1657 82.2389 25.3413 82.6315 25.61C83.0449 25.858 83.3445 26.1783 83.5305 26.571C83.7372 26.9637 83.7579 27.3873 83.5925 27.842C83.9232 27.532 84.2539 27.3873 84.5845 27.408C84.9152 27.4287 85.1839 27.5527 85.3905 27.78C85.6179 28.0073 85.7212 28.2863 85.7005 28.617C85.7005 28.9477 85.5249 29.268 85.1735 29.578C85.6282 29.454 86.0105 29.516 86.3205 29.764C86.6512 30.012 86.8785 30.3427 87.0025 30.756C87.1265 31.1487 87.1162 31.531 86.9715 31.903C86.8475 32.275 86.5582 32.5333 86.1035 32.678C86.1035 33.36 86.0105 33.8147 85.8245 34.042C85.6385 34.2693 85.4525 34.2693 85.2665 34.042C85.0805 33.8147 84.9875 33.36 84.9875 32.678C84.9875 33.05 84.8325 33.3497 84.5225 33.577C84.2332 33.8043 83.8612 33.9593 83.4065 34.042C82.9725 34.104 82.5282 34.104 82.0735 34.042C81.6395 33.9593 81.2675 33.8043 80.9575 33.577C80.6682 33.3497 80.5235 33.05 80.5235 32.678C80.1102 33.112 79.7382 33.3083 79.4075 33.267C79.0769 33.205 78.8805 33.0087 78.8185 32.678C78.7772 32.3473 78.9632 31.9753 79.3765 31.562C78.9012 32.0993 78.4569 32.3577 78.0435 32.337C77.6509 32.2957 77.4235 32.089 77.3615 31.717C77.1755 31.9237 76.9999 31.9443 76.8345 31.779C76.6485 32.1717 76.3592 32.523 75.9665 32.833C75.5945 33.1223 75.1915 33.298 74.7575 33.36C75.1089 33.6907 75.1502 34.0627 74.8815 34.476C74.6335 34.8893 74.1065 35.0753 73.3005 35.034C74.0032 35.0547 74.4682 35.1683 74.6955 35.375C74.9229 35.5817 74.9229 35.7883 74.6955 35.995C74.4682 36.2017 74.0032 36.305 73.3005 36.305C73.9619 36.2843 74.4372 36.398 74.7265 36.646C75.0159 36.8733 75.1089 37.1317 75.0055 37.421C74.9022 37.7103 74.6025 37.9273 74.1065 38.072C74.6025 38.134 75.0055 38.4233 75.3155 38.94C75.6462 39.4567 75.7909 39.963 75.7495 40.459C75.8735 40.4383 75.9769 40.49 76.0595 40.614C76.2869 40.2007 76.6279 39.8907 77.0825 39.684C77.5579 39.4567 78.0229 39.3843 78.4775 39.467C78.9529 39.5497 79.3249 39.839 79.5935 40.335C79.4902 39.901 79.5522 39.5393 79.7795 39.25C80.0275 38.9607 80.3375 38.7747 80.7095 38.692C81.1022 38.5887 81.4742 38.6093 81.8255 38.754C82.1769 38.8987 82.4042 39.188 82.5075 39.622C82.5075 39.0227 82.6625 38.568 82.9725 38.258C83.2825 37.948 83.6442 37.793 84.0575 37.793C84.4709 37.793 84.8325 37.948 85.1425 38.258C85.4525 38.568 85.6075 39.0227 85.6075 39.622C86.1862 39.56 86.5892 39.6737 86.8165 39.963C87.0439 40.2523 87.0749 40.5623 86.9095 40.893C86.7442 41.203 86.3619 41.3787 85.7625 41.42C86.1759 41.6887 86.3929 42.0193 86.4135 42.412C86.4549 42.784 86.3619 43.1457 86.1345 43.497C85.9072 43.8277 85.6075 44.0653 85.2355 44.21C84.8842 44.334 84.5122 44.2617 84.1195 43.993C84.3262 44.4063 84.3055 44.8197 84.0575 45.233C83.8095 45.6257 83.4479 45.946 82.9725 46.194C82.4972 46.442 82.0219 46.5557 81.5465 46.535C81.0712 46.5143 80.7302 46.2973 80.5235 45.884C80.6475 46.504 80.6165 46.938 80.4305 47.186C80.2652 47.434 80.0482 47.4753 79.7795 47.31C79.5109 47.1653 79.3145 46.7933 79.1905 46.194C79.2319 46.9173 79.0149 47.4133 78.5395 47.682C78.0642 47.9507 77.4442 47.9713 76.6795 47.744C75.9355 47.5167 75.1605 47.0207 74.3545 46.256ZM90.1541 41.575C89.5341 41.575 89.0691 41.451 88.7591 41.203C88.4698 40.9343 88.3251 40.6347 88.3251 40.304C88.3251 39.9527 88.4698 39.653 88.7591 39.405C89.0691 39.1363 89.5341 39.002 90.1541 39.002C89.6375 39.002 89.2448 38.7953 88.9761 38.382C88.7281 37.948 88.6041 37.452 88.6041 36.894C88.6041 36.336 88.7281 35.8503 88.9761 35.437C89.2448 35.003 89.6375 34.786 90.1541 34.786C89.6788 34.786 89.2965 34.6413 89.0071 34.352C88.7178 34.0627 88.5215 33.701 88.4181 33.267C88.3148 32.833 88.3148 32.4093 88.4181 31.996C88.5215 31.562 88.7178 31.2003 89.0071 30.911C89.2965 30.6217 89.6788 30.477 90.1541 30.477C89.5755 30.477 89.1311 30.353 88.8211 30.105C88.5318 29.8363 88.3871 29.547 88.3871 29.237C88.3871 28.9063 88.5318 28.617 88.8211 28.369C89.1311 28.121 89.5755 27.997 90.1541 27.997C89.8648 27.7283 89.7305 27.439 89.7511 27.129C89.7925 26.819 89.9165 26.5503 90.1231 26.323C90.3505 26.0957 90.6088 25.9613 90.8981 25.92C91.2081 25.858 91.5078 25.9613 91.7972 26.23C91.8385 25.6307 92.0761 25.1967 92.5102 24.928C92.9442 24.6387 93.4298 24.5147 93.9671 24.556C94.5045 24.5973 94.9695 24.7833 95.3622 25.114C95.7548 25.4447 95.9305 25.9097 95.8892 26.509C96.3438 26.509 96.6848 26.664 96.9121 26.974C97.1395 27.284 97.2532 27.6457 97.2532 28.059C97.2532 28.4517 97.1395 28.803 96.9121 29.113C96.6848 29.423 96.3438 29.578 95.8892 29.578C96.5092 29.578 96.9328 29.6813 97.1602 29.888C97.3875 30.074 97.4185 30.26 97.2532 30.446C97.6665 30.2807 98.0385 30.291 98.3692 30.477C98.1832 30.2083 98.1315 29.8673 98.2142 29.454C98.3175 29.0407 98.4932 28.648 98.7412 28.276C98.9892 27.8833 99.2785 27.594 99.6092 27.408C99.9398 27.222 100.27 27.2117 100.601 27.377C100.415 27.0257 100.384 26.7053 100.508 26.416C100.653 26.1267 100.87 25.9097 101.159 25.765C101.448 25.6203 101.748 25.579 102.058 25.641C102.368 25.6823 102.606 25.8787 102.771 26.23C102.771 25.7133 102.967 25.3103 103.36 25.021C103.753 24.7317 104.207 24.5767 104.724 24.556C105.261 24.5147 105.757 24.5973 106.212 24.804C106.667 24.99 106.966 25.3103 107.111 25.765C107.008 24.835 107.09 24.3907 107.359 24.432C107.628 24.4527 107.865 25.0003 108.072 26.075C108.485 26.323 108.733 26.602 108.816 26.912C108.899 27.222 108.868 27.501 108.723 27.749C108.578 27.997 108.341 28.1623 108.01 28.245C107.7 28.307 107.338 28.214 106.925 27.966C107.338 28.214 107.566 28.5343 107.607 28.927C107.648 29.3197 107.555 29.702 107.328 30.074C107.121 30.4253 106.832 30.6837 106.46 30.849C106.088 31.0143 105.706 30.973 105.313 30.725C105.768 30.9937 106.026 31.3347 106.088 31.748C106.171 32.1613 106.098 32.554 105.871 32.926C105.664 33.298 105.354 33.5563 104.941 33.701C104.548 33.825 104.125 33.7423 103.67 33.453C104.166 33.7423 104.445 34.104 104.507 34.538C104.569 34.9513 104.476 35.3027 104.228 35.592C104.497 35.778 104.59 36.0777 104.507 36.491C104.424 36.8837 104.083 37.2557 103.484 37.607C103.897 37.359 104.3 37.297 104.693 37.421C105.106 37.545 105.468 37.7827 105.778 38.134C106.109 38.4853 106.346 38.8883 106.491 39.343C106.656 39.7977 106.698 40.2317 106.615 40.645C106.532 41.0583 106.284 41.389 105.871 41.637C106.553 41.2237 107.059 41.048 107.39 41.11C107.721 41.1513 107.824 41.327 107.7 41.637C107.576 41.947 107.183 42.2983 106.522 42.691C106.935 42.443 107.328 42.3913 107.7 42.536C108.093 42.6807 108.392 42.939 108.599 43.311C108.826 43.683 108.909 44.0757 108.847 44.489C108.806 44.8817 108.578 45.202 108.165 45.45C109.219 45.388 109.746 45.4603 109.746 45.667C109.767 45.8737 109.25 46.008 108.196 46.07C108.196 46.5247 108.041 46.8863 107.731 47.155C107.421 47.4237 107.039 47.5993 106.584 47.682C106.129 47.7853 105.675 47.7853 105.22 47.682C104.765 47.5993 104.383 47.4237 104.073 47.155C103.763 46.8863 103.608 46.5247 103.608 46.07C103.422 46.4627 103.133 46.6797 102.74 46.721C102.347 46.7623 101.965 46.69 101.593 46.504C101.221 46.318 100.932 46.0597 100.725 45.729C100.539 45.3777 100.549 45.016 100.756 44.644C100.446 44.8093 100.115 44.7887 99.7642 44.582C99.4128 44.3547 99.1028 44.0343 98.8342 43.621C98.5655 43.2077 98.3692 42.784 98.2452 42.35C98.1418 41.8953 98.1625 41.5233 98.3072 41.234C97.9352 41.5027 97.5322 41.5543 97.0982 41.389C97.2015 41.8023 97.2222 42.2363 97.1602 42.691C97.0982 43.1457 96.9638 43.5383 96.7572 43.869C96.5505 44.179 96.2612 44.334 95.8892 44.334C96.1578 44.6233 96.2715 44.9333 96.2302 45.264C96.1888 45.5947 96.0442 45.8737 95.7962 46.101C95.5482 46.3283 95.2588 46.4523 94.9282 46.473C94.5975 46.4937 94.2875 46.3593 93.9981 46.07C93.9981 46.4833 93.8638 46.7933 93.5952 47C93.3472 47.2273 93.0268 47.31 92.6341 47.248C92.2415 47.2067 91.8488 46.9897 91.4561 46.597C91.0841 46.2043 90.7638 45.605 90.4951 44.799C90.2471 43.9723 90.1335 42.8977 90.1541 41.575ZM96.6642 30.725C96.6848 30.725 96.7055 30.725 96.7262 30.725C96.7468 30.725 96.7675 30.7147 96.7882 30.694L96.6642 30.725ZM117.525 42.691C117.008 42.691 116.615 42.5773 116.347 42.35C116.099 42.102 115.975 41.823 115.975 41.513C115.975 41.203 116.099 40.9343 116.347 40.707C116.615 40.4797 117.008 40.366 117.525 40.366C116.822 40.366 116.347 40.2523 116.099 40.025C115.871 39.7977 115.871 39.5703 116.099 39.343C116.347 39.1157 116.822 39.002 117.525 39.002C117.008 39.002 116.626 38.8883 116.378 38.661C116.13 38.413 116.006 38.134 116.006 37.824C116.006 37.514 116.13 37.2453 116.378 37.018C116.626 36.77 117.008 36.646 117.525 36.646C116.925 36.646 116.471 36.4703 116.161 36.119C115.871 35.747 115.727 35.3233 115.727 34.848C115.727 34.3727 115.871 33.9593 116.161 33.608C116.471 33.236 116.925 33.05 117.525 33.05C116.987 33.05 116.584 32.864 116.316 32.492C116.047 32.0993 115.913 31.655 115.913 31.159C115.913 30.6423 116.047 30.198 116.316 29.826C116.584 29.4333 116.987 29.237 117.525 29.237C117.029 29.2163 116.657 29.0613 116.409 28.772C116.181 28.462 116.068 28.1107 116.068 27.718C116.068 27.3253 116.192 26.9843 116.44 26.695C116.688 26.385 117.06 26.23 117.556 26.23C117.556 25.61 117.7 25.1553 117.99 24.866C118.279 24.556 118.61 24.401 118.982 24.401C119.354 24.401 119.684 24.556 119.974 24.866C120.263 25.1553 120.408 25.61 120.408 26.23C120.408 25.6513 120.542 25.2173 120.811 24.928C121.1 24.6387 121.42 24.494 121.772 24.494C122.123 24.494 122.433 24.6387 122.702 24.928C122.991 25.2173 123.136 25.6513 123.136 26.23C123.776 26.1267 124.221 26.199 124.469 26.447C124.717 26.6743 124.758 26.943 124.593 27.253C124.448 27.563 124.055 27.7697 123.415 27.873C124.117 27.873 124.613 28.0693 124.903 28.462C125.213 28.834 125.316 29.2473 125.213 29.702C125.109 30.136 124.81 30.4563 124.314 30.663C124.686 30.725 124.985 30.911 125.213 31.221C125.461 31.5103 125.605 31.8307 125.647 32.182C126.06 31.934 126.535 31.8307 127.073 31.872C127.631 31.9133 128.075 32.1097 128.406 32.461C128.426 32.1097 128.571 31.8823 128.84 31.779C128.633 31.407 128.643 31.0143 128.871 30.601C129.119 30.1877 129.594 29.981 130.297 29.981C129.677 29.981 129.212 29.795 128.902 29.423C128.612 29.051 128.468 28.617 128.468 28.121C128.468 27.625 128.612 27.191 128.902 26.819C129.212 26.447 129.677 26.261 130.297 26.261C130.297 25.7443 130.441 25.3517 130.731 25.083C131.02 24.8143 131.351 24.68 131.723 24.68C132.095 24.6593 132.425 24.7833 132.715 25.052C133.025 25.3207 133.18 25.7133 133.18 26.23C133.18 25.6307 133.293 25.176 133.521 24.866C133.748 24.556 134.006 24.401 134.296 24.401C134.585 24.401 134.843 24.556 135.071 24.866C135.298 25.176 135.412 25.6307 135.412 26.23C135.784 26.1473 136.104 26.2403 136.373 26.509C136.641 26.757 136.827 27.0877 136.931 27.501C137.034 27.9143 137.024 28.307 136.9 28.679C136.796 29.0303 136.559 29.2577 136.187 29.361C136.786 29.361 137.23 29.5677 137.52 29.981C137.809 30.3737 137.954 30.849 137.954 31.407C137.954 31.9443 137.809 32.4197 137.52 32.833C137.23 33.2257 136.786 33.422 136.187 33.422C136.807 33.422 137.261 33.608 137.551 33.98C137.861 34.352 138.016 34.786 138.016 35.282C138.016 35.778 137.861 36.212 137.551 36.584C137.261 36.956 136.807 37.142 136.187 37.142C136.807 37.142 137.261 37.3383 137.551 37.731C137.861 38.1237 138.016 38.5887 138.016 39.126C138.016 39.6427 137.861 40.1077 137.551 40.521C137.261 40.9137 136.807 41.11 136.187 41.11C136.848 41.11 137.282 41.2133 137.489 41.42C137.716 41.606 137.716 41.8023 137.489 42.009C137.282 42.2157 136.848 42.319 136.187 42.319C136.662 42.319 137.013 42.4533 137.241 42.722C137.489 42.9907 137.613 43.3007 137.613 43.652C137.613 43.9827 137.489 44.2823 137.241 44.551C137.013 44.799 136.662 44.923 136.187 44.923C136.373 45.3363 136.383 45.7083 136.218 46.039C136.052 46.349 135.804 46.5763 135.474 46.721C135.143 46.8657 134.802 46.8967 134.451 46.814C134.12 46.7313 133.862 46.4833 133.676 46.07C133.696 46.6073 133.531 47.0103 133.18 47.279C132.849 47.5683 132.456 47.713 132.002 47.713C131.568 47.7337 131.175 47.6097 130.824 47.341C130.493 47.093 130.317 46.7003 130.297 46.163C129.883 46.163 129.563 45.977 129.336 45.605C129.108 45.233 128.964 44.799 128.902 44.303C128.86 43.7863 128.912 43.3007 129.057 42.846C129.201 42.3707 129.449 42.04 129.801 41.854C129.16 41.9573 128.654 41.792 128.282 41.358C127.93 40.9033 127.796 40.4177 127.879 39.901C127.114 40.149 126.37 40.1387 125.647 39.87C125.688 40.118 125.626 40.335 125.461 40.521C125.316 40.707 125.099 40.8207 124.81 40.862C125.182 41.1307 125.254 41.451 125.027 41.823C124.799 42.1743 124.262 42.35 123.415 42.35C124.221 42.35 124.748 42.4637 124.996 42.691C125.264 42.9183 125.264 43.1457 124.996 43.373C124.748 43.6003 124.221 43.714 123.415 43.714C123.911 43.714 124.283 43.8277 124.531 44.055C124.799 44.2823 124.934 44.551 124.934 44.861C124.934 45.171 124.799 45.45 124.531 45.698C124.283 45.9253 123.911 46.039 123.415 46.039C123.435 46.8243 123.353 47.341 123.167 47.589C122.981 47.8577 122.784 47.8577 122.578 47.589C122.392 47.341 122.288 46.8347 122.268 46.07C122.268 46.566 122.154 46.9277 121.927 47.155C121.699 47.403 121.441 47.527 121.152 47.527C120.862 47.527 120.604 47.403 120.377 47.155C120.149 46.9277 120.036 46.566 120.036 46.07C120.036 46.876 119.922 47.4133 119.695 47.682C119.467 47.9507 119.24 47.9507 119.013 47.682C118.785 47.4133 118.672 46.876 118.672 46.07C118.672 46.6073 118.61 46.9897 118.486 47.217C118.362 47.465 118.217 47.4857 118.052 47.279C117.907 47.0723 117.773 46.6073 117.649 45.884C117.545 45.14 117.504 44.0757 117.525 42.691ZM148.888 46.349C148.806 46.845 148.568 47.1757 148.175 47.341C147.803 47.527 147.39 47.5787 146.935 47.496C146.501 47.4133 146.14 47.217 145.85 46.907C145.582 46.597 145.499 46.194 145.602 45.698C145.354 46.0907 145.034 46.3077 144.641 46.349C144.249 46.3697 143.877 46.2767 143.525 46.07C143.195 45.8633 142.957 45.5843 142.812 45.233C142.668 44.861 142.709 44.4787 142.936 44.086C142.42 44.4993 141.996 44.6853 141.665 44.644C141.355 44.6027 141.211 44.427 141.231 44.117C141.273 43.7863 141.562 43.4143 142.099 43.001C141.789 43.063 141.51 42.97 141.262 42.722C141.014 42.474 140.808 42.133 140.642 41.699C140.477 41.265 140.374 40.831 140.332 40.397C140.291 39.9423 140.322 39.5393 140.425 39.188C140.529 38.8367 140.725 38.63 141.014 38.568C140.539 38.568 140.177 38.382 139.929 38.01C139.702 37.638 139.588 37.2143 139.588 36.739C139.588 36.243 139.702 35.809 139.929 35.437C140.177 35.065 140.539 34.879 141.014 34.879C140.456 34.879 140.033 34.7343 139.743 34.445C139.475 34.135 139.34 33.7837 139.34 33.391C139.34 32.9983 139.475 32.6573 139.743 32.368C140.033 32.0787 140.456 31.934 141.014 31.934C140.456 31.934 140.033 31.7583 139.743 31.407C139.454 31.035 139.309 30.6113 139.309 30.136C139.309 29.6607 139.454 29.2473 139.743 28.896C140.033 28.524 140.456 28.338 141.014 28.338C140.477 28.338 140.074 28.2347 139.805 28.028C139.537 27.8213 139.402 27.5837 139.402 27.315C139.402 27.0257 139.537 26.7777 139.805 26.571C140.074 26.3643 140.477 26.261 141.014 26.261C141.014 25.7237 141.2 25.3207 141.572 25.052C141.965 24.7627 142.42 24.618 142.936 24.618C143.453 24.618 143.908 24.7523 144.3 25.021C144.693 25.2897 144.889 25.6927 144.889 26.23C144.889 25.6927 144.993 25.2897 145.199 25.021C145.427 24.7317 145.675 24.587 145.943 24.587C146.212 24.587 146.45 24.7317 146.656 25.021C146.884 25.2897 146.997 25.6927 146.997 26.23C147.597 26.2507 148.041 26.478 148.33 26.912C148.62 27.3253 148.754 27.811 148.733 28.369C148.733 28.927 148.578 29.423 148.268 29.857C147.958 30.2703 147.504 30.4667 146.904 30.446C147.4 30.446 147.762 30.5907 147.989 30.88C148.237 31.1693 148.361 31.5 148.361 31.872C148.361 32.244 148.237 32.5747 147.989 32.864C147.762 33.1327 147.4 33.267 146.904 33.267C147.71 33.267 148.237 33.3807 148.485 33.608C148.754 33.8353 148.754 34.0627 148.485 34.29C148.237 34.5173 147.71 34.631 146.904 34.631C147.359 34.631 147.7 34.7757 147.927 35.065C148.155 35.3543 148.279 35.6953 148.299 36.088C148.32 36.46 148.227 36.8113 148.02 37.142C147.834 37.452 147.535 37.638 147.121 37.7C147.659 37.6587 148.072 37.7517 148.361 37.979C148.651 38.2063 148.806 38.4853 148.826 38.816C148.868 39.1467 148.775 39.4463 148.547 39.715C148.899 39.715 149.054 39.8597 149.012 40.149C149.674 39.8597 150.335 39.8803 150.996 40.211C151.017 39.7977 151.172 39.467 151.461 39.219C151.771 38.9503 152.154 38.847 152.608 38.909C152.319 38.661 152.123 38.3097 152.019 37.855C151.916 37.4003 151.895 36.9353 151.957 36.46C152.019 35.9847 152.164 35.5817 152.391 35.251C152.639 34.9203 152.96 34.755 153.352 34.755C152.774 34.755 152.34 34.5483 152.05 34.135C151.782 33.701 151.647 33.2153 151.647 32.678C151.647 32.12 151.782 31.6343 152.05 31.221C152.34 30.787 152.774 30.57 153.352 30.57C152.856 30.57 152.484 30.415 152.236 30.105C151.988 29.795 151.864 29.4437 151.864 29.051C151.864 28.6377 151.988 28.276 152.236 27.966C152.484 27.656 152.856 27.501 153.352 27.501C152.939 27.2117 152.732 26.912 152.732 26.602C152.753 26.292 152.908 26.0853 153.197 25.982C153.487 25.858 153.838 25.9407 154.251 26.23C154.251 25.6513 154.365 25.2173 154.592 24.928C154.82 24.6387 155.078 24.494 155.367 24.494C155.657 24.494 155.915 24.6387 156.142 24.928C156.37 25.2173 156.483 25.6513 156.483 26.23C156.483 25.6927 156.587 25.2897 156.793 25.021C157.021 24.7317 157.269 24.587 157.537 24.587C157.806 24.587 158.044 24.7317 158.25 25.021C158.478 25.2897 158.591 25.6927 158.591 26.23C159.067 26.1267 159.449 26.2197 159.738 26.509C160.048 26.7777 160.245 27.129 160.327 27.563C160.431 27.9763 160.389 28.3793 160.203 28.772C160.038 29.144 159.718 29.3713 159.242 29.454C159.718 29.454 160.079 29.6607 160.327 30.074C160.575 30.4873 160.699 30.9627 160.699 31.5C160.699 32.0373 160.575 32.5127 160.327 32.926C160.079 33.3187 159.718 33.515 159.242 33.515C159.676 33.515 160.028 33.67 160.296 33.98C160.565 34.2693 160.741 34.6413 160.823 35.096C160.906 35.53 160.906 35.964 160.823 36.398C160.741 36.832 160.565 37.204 160.296 37.514C160.028 37.8033 159.676 37.948 159.242 37.948C159.945 37.948 160.41 38.0617 160.637 38.289C160.885 38.5163 160.885 38.7437 160.637 38.971C160.41 39.1983 159.945 39.312 159.242 39.312C160.028 39.4153 160.534 39.622 160.761 39.932C160.989 40.2213 160.947 40.49 160.637 40.738C160.348 40.9653 159.811 41.0273 159.025 40.924C159.501 41.172 159.78 41.513 159.862 41.947C159.945 42.381 159.883 42.8047 159.676 43.218C159.47 43.6107 159.16 43.9 158.746 44.086C158.354 44.272 157.909 44.2307 157.413 43.962C157.827 44.458 158.023 44.861 158.002 45.171C158.002 45.4603 157.847 45.5947 157.537 45.574C157.248 45.5327 156.897 45.264 156.483 44.768C156.731 45.2847 156.804 45.729 156.7 46.101C156.618 46.4523 156.432 46.7003 156.142 46.845C155.874 46.969 155.564 46.9587 155.212 46.814C154.882 46.6487 154.592 46.3077 154.344 45.791C154.427 46.3283 154.262 46.752 153.848 47.062C153.456 47.3927 152.939 47.589 152.298 47.651C151.678 47.7337 151.048 47.6717 150.407 47.465C149.787 47.2583 149.281 46.8863 148.888 46.349ZM164.059 42.071C163.501 42.071 163.077 41.9057 162.788 41.575C162.498 41.2237 162.354 40.8207 162.354 40.366C162.354 39.8907 162.498 39.4877 162.788 39.157C163.077 38.8057 163.501 38.63 164.059 38.63C163.542 38.63 163.149 38.4647 162.881 38.134C162.612 37.8033 162.478 37.4313 162.478 37.018C162.478 36.584 162.612 36.212 162.881 35.902C163.149 35.5713 163.542 35.406 164.059 35.406C163.666 35.406 163.346 35.2613 163.098 34.972C162.87 34.662 162.715 34.29 162.633 33.856C162.571 33.4013 162.571 32.957 162.633 32.523C162.715 32.089 162.87 31.7273 163.098 31.438C163.346 31.128 163.666 30.973 164.059 30.973C163.335 30.973 162.85 30.8077 162.602 30.477C162.354 30.1463 162.354 29.8157 162.602 29.485C162.85 29.1543 163.335 28.989 164.059 28.989C163.604 28.9477 163.263 28.7823 163.036 28.493C162.829 28.2037 162.736 27.8833 162.757 27.532C162.777 27.16 162.912 26.85 163.16 26.602C163.408 26.3333 163.759 26.2093 164.214 26.23C164.214 25.6307 164.389 25.176 164.741 24.866C165.092 24.556 165.495 24.401 165.95 24.401C166.404 24.401 166.807 24.556 167.159 24.866C167.51 25.176 167.686 25.6307 167.686 26.23C167.686 25.8167 167.841 25.4963 168.151 25.269C168.481 25.021 168.874 24.8557 169.329 24.773C169.804 24.6903 170.269 24.6903 170.724 24.773C171.199 24.8557 171.592 25.021 171.902 25.269C172.232 25.4963 172.398 25.8167 172.398 26.23C172.398 25.6307 172.542 25.1863 172.832 24.897C173.121 24.587 173.452 24.432 173.824 24.432C174.216 24.432 174.547 24.587 174.816 24.897C175.105 25.1863 175.25 25.641 175.25 26.261C175.312 25.7237 175.456 25.3413 175.684 25.114C175.932 24.866 176.19 24.7627 176.459 24.804C176.748 24.8247 176.986 24.9797 177.172 25.269C177.358 25.5583 177.42 25.9613 177.358 26.478C177.544 25.8167 177.792 25.4033 178.102 25.238C178.412 25.0727 178.649 25.145 178.815 25.455C179.001 25.7443 179.001 26.2197 178.815 26.881C179.104 26.5297 179.445 26.354 179.838 26.354C180.23 26.354 180.582 26.4883 180.892 26.757C181.202 27.005 181.398 27.315 181.481 27.687C181.584 28.059 181.491 28.431 181.202 28.803C181.76 28.679 182.204 28.741 182.535 28.989C182.886 29.2163 183.103 29.5263 183.186 29.919C183.289 30.3117 183.237 30.694 183.031 31.066C182.845 31.438 182.473 31.686 181.915 31.81C182.39 31.9753 182.71 32.2027 182.876 32.492C183.041 32.7813 183.072 33.0603 182.969 33.329C182.865 33.5977 182.659 33.794 182.349 33.918C182.039 34.042 181.646 34.011 181.171 33.825C181.646 34.445 181.853 34.9513 181.791 35.344C181.729 35.716 181.501 35.8917 181.109 35.871C180.716 35.8503 180.282 35.53 179.807 34.91C180.034 35.1993 180.158 35.499 180.179 35.809C180.716 36.0157 181.181 36.3463 181.574 36.801C181.966 37.2557 182.039 37.7 181.791 38.134C182.287 38.01 182.69 38.0203 183 38.165C183.31 38.289 183.496 38.4853 183.558 38.754C183.64 39.0227 183.589 39.2913 183.403 39.56C183.217 39.8287 182.876 40.0353 182.38 40.18C182.958 40.304 183.361 40.5313 183.589 40.862C183.837 41.1927 183.919 41.544 183.837 41.916C183.775 42.2673 183.568 42.5567 183.217 42.784C182.886 43.0113 182.421 43.063 181.822 42.939C182.235 43.3317 182.442 43.7347 182.442 44.148C182.442 44.5613 182.307 44.9127 182.039 45.202C181.77 45.4707 181.429 45.6153 181.016 45.636C180.602 45.636 180.189 45.4397 179.776 45.047C180.044 45.6877 180.127 46.163 180.024 46.473C179.941 46.7623 179.755 46.845 179.466 46.721C179.176 46.5763 178.897 46.1837 178.629 45.543C178.691 45.9977 178.567 46.38 178.257 46.69C177.967 47 177.585 47.2273 177.11 47.372C176.655 47.5167 176.18 47.5683 175.684 47.527C175.208 47.4857 174.795 47.341 174.444 47.093C174.092 46.8657 173.886 46.5247 173.824 46.07C173.824 46.628 173.658 47.0517 173.328 47.341C172.997 47.6303 172.604 47.775 172.15 47.775C171.716 47.775 171.333 47.6303 171.003 47.341C170.672 47.0517 170.507 46.628 170.507 46.07C170.507 46.5453 170.372 46.8967 170.104 47.124C169.856 47.372 169.556 47.496 169.205 47.496C168.853 47.496 168.543 47.372 168.275 47.124C168.027 46.8967 167.903 46.5453 167.903 46.07C167.903 46.4627 167.768 46.7623 167.5 46.969C167.252 47.155 166.931 47.2273 166.539 47.186C166.146 47.1447 165.753 46.9483 165.361 46.597C164.989 46.2457 164.668 45.7083 164.4 44.985C164.152 44.241 164.038 43.2697 164.059 42.071ZM169.949 32.275C170.279 32.275 170.517 32.4197 170.662 32.709C170.827 32.9777 170.93 33.2773 170.972 33.608C171.013 33.9387 171.034 34.1763 171.034 34.321C171.075 33.9903 171.22 33.763 171.468 33.639C171.716 33.515 171.974 33.5047 172.243 33.608C172.511 33.6907 172.677 33.8767 172.739 34.166C172.697 33.794 172.873 33.5253 173.266 33.36C173.658 33.174 174.01 33.1533 174.32 33.298C174.278 33.0707 174.32 32.8433 174.444 32.616C174.588 32.368 174.785 32.2027 175.033 32.12C174.826 31.996 174.661 31.7997 174.537 31.531C174.433 31.2417 174.402 30.9833 174.444 30.756C174.278 30.88 174.134 30.9007 174.01 30.818C173.906 30.7353 173.875 30.5803 173.917 30.353C173.669 30.663 173.297 30.8077 172.801 30.787C172.325 30.7457 171.984 30.5597 171.778 30.229C171.778 30.477 171.685 30.694 171.499 30.88C171.313 31.0453 171.096 31.128 170.848 31.128C170.951 31.376 170.92 31.6343 170.755 31.903C170.61 32.151 170.341 32.275 169.949 32.275ZM172.77 42.598C172.749 42.2467 172.883 42.009 173.173 41.885C173.483 41.7403 173.782 41.7093 174.072 41.792C173.968 41.4407 173.989 41.0687 174.134 40.676C174.299 40.2627 174.537 39.9527 174.847 39.746C174.516 39.6013 174.216 39.3843 173.948 39.095C173.679 38.785 173.524 38.475 173.483 38.165C173.317 38.4337 173.049 38.599 172.677 38.661C172.305 38.723 171.953 38.7023 171.623 38.599C171.685 38.9297 171.592 39.2397 171.344 39.529C171.116 39.8183 170.817 39.9423 170.445 39.901C170.755 40.087 170.961 40.3867 171.065 40.8C171.168 41.2133 171.189 41.5853 171.127 41.916C171.437 41.7713 171.788 41.761 172.181 41.885C172.573 41.9883 172.77 42.226 172.77 42.598Z" fill="white"/>
<rect x="20" y="14.5" width="176" height="44" rx="22" stroke="url(#paint0_linear_6_182)" shape-rendering="crispEdges"/>
</g>
<defs>
<filter id="filter0_d_6_182" x="0.5" y="0" width="215" height="83" filterUnits="userSpaceOnUse" color-interpolation-filters="sRGB">
<feFlood flood-opacity="0" result="BackgroundImageFix"/>
<feColorMatrix in="SourceAlpha" type="matrix" values="0 0 0 0 0 0 0 0 0 0 0 0 0 0 0 0 0 0 127 0" result="hardAlpha"/>
<feOffset dy="5"/>
<feGaussianBlur stdDeviation="9.5"/>
<feComposite in2="hardAlpha" operator="out"/>
<feColorMatrix type="matrix" values="0 0 0 0 0.431571 0 0 0 0 0.596667 0 0 0 0 0.0452471 0 0 0 0.65 0"/>
<feBlend mode="normal" in2="BackgroundImageFix" result="effect1_dropShadow_6_182"/>
<feBlend mode="normal" in="SourceGraphic" in2="effect1_dropShadow_6_182" result="shape"/>
</filter>
<linearGradient id="paint0_linear_6_182" x1="-7.9462" y1="-46.5" x2="169.735" y2="241.905" gradientUnits="userSpaceOnUse">
<stop stop-color="#79A611"/>
<stop offset="1" stop-color="#B3F718"/>
</linearGradient>
</defs>
</svg>
